<svg xmlns = "http://www.w3.org/2000/svg" width = "1000" height = "1000">
<g>
<polygon points = "33.917, 879.530 43.961, 839.957 33.856, 815.120 0.000, 810.494 0.000, 890.949 "
fill = "white" stroke = "black"/>
</g>
<g>
<polygon points = "721.848, 556.182 722.109, 558.518 748.245, 615.247 786.525, 620.978 794.254, 615.603 800.830, 561.416 "
fill = "white" stroke = "black"/>
</g>
<g>
<polygon points = "584.005, 750.846 482.949, 741.134 472.868, 758.730 473.259, 776.590 477.563, 781.998 520.635, 801.914 560.666, 788.697 "
fill = "white" stroke = "black"/>
</g>
<g>
<polygon points = "71.048, 226.253 50.841, 239.419 22.384, 331.927 76.264, 330.030 90.073, 305.164 "
fill = "white" stroke = "black"/>
</g>
<g>
<polygon points = "645.284, 41.553 646.232, 61.675 652.986, 68.115 725.976, 67.277 709.657, 0.000 654.935, 0.000 "
fill = "white" stroke = "black"/>
</g>
<g>
<polygon points = "428.754, 494.688 428.297, 435.817 387.260, 427.092 367.231, 433.898 376.759, 484.291 "
fill = "white" stroke = "black"/>
</g>
<g>
<polygon points = "835.028, 949.358 861.190, 951.660 871.214, 903.180 867.161, 890.978 810.311, 892.949 811.948, 923.734 "
fill = "white" stroke = "black"/>
</g>
<g>
<polygon points = "93.505, 512.812 93.224, 511.832 4.770, 429.150 0.000, 428.942 0.000, 507.661 "
fill = "white" stroke = "black"/>
</g>
<g>
<polygon points = "689.741, 941.176 599.876, 968.321 601.362, 1000.000 699.240, 1000.000 "
fill = "white" stroke = "black"/>
</g>
<g>
<polygon points = "406.334, 943.102 406.842, 918.485 369.695, 897.197 350.590, 901.827 341.564, 984.116 343.775, 997.916 "
fill = "white" stroke = "black"/>
</g>
<g>
<polygon points = "452.230, 368.940 465.976, 371.592 477.285, 327.249 471.816, 314.639 459.831, 308.350 363.829, 318.249 363.174, 321.795 "
fill = "white" stroke = "black"/>
</g>
<g>
<polygon points = "573.364, 38.293 564.521, 51.831 573.187, 81.323 577.283, 84.872 612.719, 92.936 646.232, 61.675 645.284, 41.553 "
fill = "white" stroke = "black"/>
</g>
<g>
<polygon points = "850.521, 534.896 864.020, 529.426 868.436, 517.901 873.226, 419.526 861.094, 416.916 807.404, 475.981 807.412, 476.788 834.695, 520.973 "
fill = "white" stroke = "black"/>
</g>
<g>
<polygon points = "66.739, 382.318 97.332, 401.828 104.508, 400.372 113.733, 395.206 120.887, 301.935 118.617, 297.104 90.073, 305.164 76.264, 330.030 "
fill = "white" stroke = "black"/>
</g>
<g>
<polygon points = "390.171, 249.710 364.819, 270.739 363.829, 318.249 459.831, 308.350 "
fill = "white" stroke = "black"/>
</g>
<g>
<polygon points = "860.582, 198.153 862.725, 215.730 917.699, 264.212 945.650, 173.680 921.062, 156.337 864.160, 176.120 "
fill = "white" stroke = "black"/>
</g>
<g>
<polygon points = "343.775, 997.916 341.564, 984.116 272.471, 946.337 251.599, 944.557 244.902, 980.356 255.271, 1000.000 343.282, 1000.000 "
fill = "white" stroke = "black"/>
</g>
<g>
<polygon points = "721.136, 622.313 718.342, 674.492 722.950, 687.240 811.255, 666.189 786.525, 620.978 748.245, 615.247 "
fill = "white" stroke = "black"/>
</g>
<g>
<polygon points = "610.468, 280.793 658.746, 253.712 660.751, 216.966 605.708, 229.947 "
fill = "white" stroke = "black"/>
</g>
<g>
<polygon points = "937.829, 628.960 901.571, 664.070 912.083, 669.273 971.690, 678.683 1000.000, 679.494 1000.000, 617.890 "
fill = "white" stroke = "black"/>
</g>
<g>
<polygon points = "221.672, 52.930 252.366, 75.042 269.033, 67.757 312.176, 0.000 222.329, 0.000 "
fill = "white" stroke = "black"/>
</g>
<g>
<polygon points = "707.491, 270.142 713.995, 274.425 759.050, 252.555 761.361, 248.054 737.178, 192.287 706.576, 211.982 "
fill = "white" stroke = "black"/>
</g>
<g>
<polygon points = "649.373, 892.324 584.974, 945.426 599.876, 968.321 689.741, 941.176 691.648, 937.966 "
fill = "white" stroke = "black"/>
</g>
<g>
<polygon points = "612.719, 92.936 616.235, 116.652 626.553, 127.449 687.708, 137.174 687.795, 137.055 652.986, 68.115 646.232, 61.675 "
fill = "white" stroke = "black"/>
</g>
<g>
<polygon points = "281.162, 512.331 280.826, 512.463 232.081, 542.753 252.660, 578.852 309.422, 588.015 313.452, 577.993 "
fill = "white" stroke = "black"/>
</g>
<g>
<polygon points = "742.287, 482.069 739.161, 496.869 805.616, 542.575 834.695, 520.973 807.412, 476.788 "
fill = "white" stroke = "black"/>
</g>
<g>
<polygon points = "282.018, 749.014 302.471, 751.781 305.244, 746.208 312.357, 701.476 188.399, 719.546 "
fill = "white" stroke = "black"/>
</g>
<g>
<polygon points = "386.507, 851.035 355.830, 825.947 324.128, 821.796 316.791, 866.520 331.280, 884.327 350.590, 901.827 369.695, 897.197 "
fill = "white" stroke = "black"/>
</g>
<g>
<polygon points = "495.865, 58.747 487.290, 61.787 424.156, 100.136 438.115, 118.643 508.138, 120.873 510.161, 100.961 "
fill = "white" stroke = "black"/>
</g>
<g>
<polygon points = "917.076, 981.086 931.366, 937.766 908.559, 871.072 893.397, 858.026 867.161, 890.978 871.214, 903.180 "
fill = "white" stroke = "black"/>
</g>
<g>
<polygon points = "918.042, 548.725 941.759, 537.942 946.255, 534.249 958.953, 435.534 868.436, 517.901 864.020, 529.426 "
fill = "white" stroke = "black"/>
</g>
<g>
<polygon points = "578.498, 678.650 563.042, 649.080 467.102, 672.045 460.371, 675.997 483.068, 733.748 "
fill = "white" stroke = "black"/>
</g>
<g>
<polygon points = "959.683, 433.162 958.953, 435.534 946.255, 534.249 1000.000, 536.353 1000.000, 422.914 "
fill = "white" stroke = "black"/>
</g>
<g>
<polygon points = "250.207, 883.460 236.306, 924.948 251.599, 944.557 272.471, 946.337 331.280, 884.327 316.791, 866.520 311.754, 865.309 "
fill = "white" stroke = "black"/>
</g>
<g>
<polygon points = "974.067, 904.182 908.559, 871.072 931.366, 937.766 1000.000, 957.442 1000.000, 920.858 "
fill = "white" stroke = "black"/>
</g>
<g>
<polygon points = "565.815, 623.726 479.084, 591.458 467.102, 672.045 563.042, 649.080 "
fill = "white" stroke = "black"/>
</g>
<g>
<polygon points = "252.266, 77.798 314.380, 109.415 321.287, 108.651 363.115, 64.542 361.447, 52.918 360.498, 50.740 269.033, 67.757 252.366, 75.042 "
fill = "white" stroke = "black"/>
</g>
<g>
<polygon points = "557.437, 586.414 527.817, 521.939 484.257, 515.920 458.582, 552.096 "
fill = "white" stroke = "black"/>
</g>
<g>
<polygon points = "931.366, 937.766 917.076, 981.086 921.700, 1000.000 1000.000, 1000.000 1000.000, 957.442 "
fill = "white" stroke = "black"/>
</g>
<g>
<polygon points = "772.099, 245.089 815.347, 205.605 768.378, 152.823 743.636, 175.066 737.178, 192.287 761.361, 248.054 "
fill = "white" stroke = "black"/>
</g>
<g>
<polygon points = "893.397, 858.026 891.639, 846.879 888.283, 839.116 794.403, 837.557 782.389, 866.798 781.573, 885.038 810.311, 892.949 867.161, 890.978 "
fill = "white" stroke = "black"/>
</g>
<g>
<polygon points = "0.000, 213.222 0.000, 358.802 22.384, 331.927 50.841, 239.419 "
fill = "white" stroke = "black"/>
</g>
<g>
<polygon points = "923.182, 411.029 922.863, 402.726 842.073, 335.470 813.169, 360.821 813.163, 380.671 861.094, 416.916 873.226, 419.526 "
fill = "white" stroke = "black"/>
</g>
<g>
<polygon points = "738.411, 324.133 754.939, 343.934 763.653, 341.409 759.050, 252.555 713.995, 274.425 "
fill = "white" stroke = "black"/>
</g>
<g>
<polygon points = "943.198, 101.581 921.466, 119.011 921.062, 156.337 945.650, 173.680 1000.000, 190.765 1000.000, 90.959 "
fill = "white" stroke = "black"/>
</g>
<g>
<polygon points = "319.491, 682.885 269.627, 662.873 179.265, 707.757 177.018, 718.231 188.399, 719.546 312.357, 701.476 "
fill = "white" stroke = "black"/>
</g>
<g>
<polygon points = "338.679, 433.812 324.395, 441.499 322.036, 501.578 348.186, 516.156 348.388, 516.161 376.759, 484.291 367.231, 433.898 "
fill = "white" stroke = "black"/>
</g>
<g>
<polygon points = "621.729, 168.732 626.553, 127.449 616.235, 116.652 568.568, 139.090 573.268, 184.556 "
fill = "white" stroke = "black"/>
</g>
<g>
<polygon points = "394.997, 196.766 439.604, 124.470 438.115, 118.643 424.156, 100.136 377.760, 77.272 "
fill = "white" stroke = "black"/>
</g>
<g>
<polygon points = "229.600, 624.733 312.030, 643.849 309.422, 588.015 252.660, 578.852 "
fill = "white" stroke = "black"/>
</g>
<g>
<polygon points = "610.297, 525.721 599.174, 515.275 527.817, 521.939 557.437, 586.414 570.998, 593.445 "
fill = "white" stroke = "black"/>
</g>
<g>
<polygon points = "258.831, 823.484 311.754, 865.309 316.791, 866.520 324.128, 821.796 301.243, 768.055 "
fill = "white" stroke = "black"/>
</g>
<g>
<polygon points = "180.244, 377.977 146.214, 389.523 195.875, 476.996 233.055, 432.989 "
fill = "white" stroke = "black"/>
</g>
<g>
<polygon points = "811.948, 923.734 810.311, 892.949 781.573, 885.038 773.095, 892.673 766.570, 982.530 766.921, 984.053 "
fill = "white" stroke = "black"/>
</g>
<g>
<polygon points = "593.444, 500.852 488.359, 481.251 484.257, 515.920 527.817, 521.939 599.174, 515.275 "
fill = "white" stroke = "black"/>
</g>
<g>
<polygon points = "945.650, 173.680 917.699, 264.212 927.333, 289.615 1000.000, 239.656 1000.000, 190.765 "
fill = "white" stroke = "black"/>
</g>
<g>
<polygon points = "510.161, 100.961 508.138, 120.873 524.549, 158.126 535.390, 150.300 577.283, 84.872 573.187, 81.323 "
fill = "white" stroke = "black"/>
</g>
<g>
<polygon points = "685.224, 152.841 687.708, 137.174 626.553, 127.449 621.729, 168.732 629.196, 176.192 667.607, 179.361 "
fill = "white" stroke = "black"/>
</g>
<g>
<polygon points = "134.040, 742.978 166.903, 828.299 181.336, 833.026 180.261, 759.881 168.317, 722.787 132.008, 715.466 "
fill = "white" stroke = "black"/>
</g>
<g>
<polygon points = "714.242, 798.502 688.739, 842.826 743.734, 905.803 773.095, 892.673 781.573, 885.038 782.389, 866.798 "
fill = "white" stroke = "black"/>
</g>
<g>
<polygon points = "40.301, 745.309 125.706, 711.712 113.004, 685.123 0.000, 709.936 0.000, 710.608 "
fill = "white" stroke = "black"/>
</g>
<g>
<polygon points = "31.306, 637.754 54.257, 567.413 0.000, 526.746 0.000, 681.280 "
fill = "white" stroke = "black"/>
</g>
<g>
<polygon points = "82.086, 198.847 55.781, 183.241 0.000, 182.805 0.000, 213.222 50.841, 239.419 71.048, 226.253 "
fill = "white" stroke = "black"/>
</g>
<g>
<polygon points = "949.515, 782.717 928.088, 741.939 845.524, 773.103 885.642, 826.579 "
fill = "white" stroke = "black"/>
</g>
<g>
<polygon points = "177.296, 634.451 126.048, 662.706 117.627, 674.500 113.004, 685.123 125.706, 711.712 132.008, 715.466 168.317, 722.787 177.018, 718.231 179.265, 707.757 "
fill = "white" stroke = "black"/>
</g>
<g>
<polygon points = "942.211, 338.256 925.809, 298.947 852.172, 319.477 842.073, 335.470 922.863, 402.726 "
fill = "white" stroke = "black"/>
</g>
<g>
<polygon points = "206.514, 320.057 210.297, 293.008 122.189, 257.172 118.617, 297.104 120.887, 301.935 184.851, 352.148 "
fill = "white" stroke = "black"/>
</g>
<g>
<polygon points = "405.181, 663.361 423.090, 657.145 423.032, 607.368 383.980, 602.612 367.492, 611.878 343.368, 665.468 "
fill = "white" stroke = "black"/>
</g>
<g>
<polygon points = "471.913, 890.280 507.047, 892.385 520.826, 819.331 520.635, 801.914 477.563, 781.998 "
fill = "white" stroke = "black"/>
</g>
<g>
<polygon points = "522.909, 169.530 550.178, 195.442 573.268, 184.556 568.568, 139.090 535.390, 150.300 524.549, 158.126 "
fill = "white" stroke = "black"/>
</g>
<g>
<polygon points = "573.364, 38.293 645.284, 41.553 654.935, 0.000 571.945, 0.000 "
fill = "white" stroke = "black"/>
</g>
<g>
<polygon points = "580.076, 900.024 600.968, 851.633 560.666, 788.697 520.635, 801.914 520.826, 819.331 "
fill = "white" stroke = "black"/>
</g>
<g>
<polygon points = "946.255, 534.249 941.759, 537.942 937.829, 628.960 1000.000, 617.890 1000.000, 536.353 "
fill = "white" stroke = "black"/>
</g>
<g>
<polygon points = "148.998, 470.230 194.888, 478.420 195.875, 476.996 146.214, 389.523 113.733, 395.206 104.508, 400.372 "
fill = "white" stroke = "black"/>
</g>
<g>
<polygon points = "193.798, 481.602 280.826, 512.463 281.162, 512.331 283.851, 505.682 259.288, 445.925 236.133, 432.300 233.055, 432.989 195.875, 476.996 194.888, 478.420 "
fill = "white" stroke = "black"/>
</g>
<g>
<polygon points = "391.670, 46.560 487.290, 61.787 495.865, 58.747 505.305, 40.824 508.553, 0.000 487.857, 0.000 "
fill = "white" stroke = "black"/>
</g>
<g>
<polygon points = "79.595, 795.505 132.855, 843.516 166.903, 828.299 134.040, 742.978 "
fill = "white" stroke = "black"/>
</g>
<g>
<polygon points = "357.153, 330.702 357.319, 326.110 304.748, 318.682 280.532, 398.237 321.282, 406.665 "
fill = "white" stroke = "black"/>
</g>
<g>
<polygon points = "184.851, 352.148 120.887, 301.935 113.733, 395.206 146.214, 389.523 180.244, 377.977 "
fill = "white" stroke = "black"/>
</g>
<g>
<polygon points = "663.938, 212.222 667.607, 179.361 629.196, 176.192 597.042, 223.330 605.708, 229.947 660.751, 216.966 "
fill = "white" stroke = "black"/>
</g>
<g>
<polygon points = "182.565, 505.851 218.218, 543.734 232.081, 542.753 280.826, 512.463 193.798, 481.602 "
fill = "white" stroke = "black"/>
</g>
<g>
<polygon points = "461.384, 786.879 370.238, 783.855 355.830, 825.947 386.507, 851.035 421.858, 829.567 "
fill = "white" stroke = "black"/>
</g>
<g>
<polygon points = "50.031, 86.239 0.000, 69.153 0.000, 182.805 55.781, 183.241 65.877, 118.466 "
fill = "white" stroke = "black"/>
</g>
<g>
<polygon points = "421.858, 829.567 386.507, 851.035 369.695, 897.197 406.842, 918.485 450.127, 897.737 "
fill = "white" stroke = "black"/>
</g>
<g>
<polygon points = "941.759, 537.942 918.042, 548.725 879.568, 635.035 886.370, 658.336 892.637, 663.319 901.571, 664.070 937.829, 628.960 "
fill = "white" stroke = "black"/>
</g>
<g>
<polygon points = "99.221, 115.187 65.877, 118.466 55.781, 183.241 82.086, 198.847 109.007, 205.458 130.929, 172.472 "
fill = "white" stroke = "black"/>
</g>
<g>
<polygon points = "79.064, 795.231 86.596, 879.521 101.011, 900.071 132.296, 899.148 132.855, 843.516 79.595, 795.505 "
fill = "white" stroke = "black"/>
</g>
<g>
<polygon points = "113.004, 685.123 117.627, 674.500 31.306, 637.754 0.000, 681.280 0.000, 709.936 "
fill = "white" stroke = "black"/>
</g>
<g>
<polygon points = "250.207, 883.460 311.754, 865.309 258.831, 823.484 240.740, 828.184 194.704, 851.194 "
fill = "white" stroke = "black"/>
</g>
<g>
<polygon points = "840.622, 597.378 850.521, 534.896 834.695, 520.973 805.616, 542.575 800.830, 561.416 794.254, 615.603 "
fill = "white" stroke = "black"/>
</g>
<g>
<polygon points = "329.932, 578.913 367.492, 611.878 383.980, 602.612 390.805, 547.988 348.388, 516.161 348.186, 516.156 "
fill = "white" stroke = "black"/>
</g>
<g>
<polygon points = "773.163, 76.467 861.657, 65.710 874.355, 48.354 868.996, 0.000 784.505, 0.000 "
fill = "white" stroke = "black"/>
</g>
<g>
<polygon points = "604.181, 728.052 594.809, 744.332 634.274, 796.415 714.534, 794.193 717.266, 789.641 626.428, 736.128 "
fill = "white" stroke = "black"/>
</g>
<g>
<polygon points = "687.795, 137.055 758.198, 111.314 758.726, 104.911 725.976, 67.277 652.986, 68.115 "
fill = "white" stroke = "black"/>
</g>
<g>
<polygon points = "288.457, 143.578 314.380, 109.415 252.266, 77.798 199.443, 125.693 "
fill = "white" stroke = "black"/>
</g>
<g>
<polygon points = "436.473, 531.479 454.136, 554.867 458.582, 552.096 484.257, 515.920 488.359, 481.251 484.084, 447.891 431.179, 501.051 "
fill = "white" stroke = "black"/>
</g>
<g>
<polygon points = "559.424, 213.064 597.042, 223.330 629.196, 176.192 621.729, 168.732 573.268, 184.556 550.178, 195.442 "
fill = "white" stroke = "black"/>
</g>
<g>
<polygon points = "805.616, 542.575 739.161, 496.869 717.583, 531.155 721.848, 556.182 800.830, 561.416 "
fill = "white" stroke = "black"/>
</g>
<g>
<polygon points = "942.211, 338.256 922.863, 402.726 923.182, 411.029 959.683, 433.162 1000.000, 422.914 1000.000, 375.135 "
fill = "white" stroke = "black"/>
</g>
<g>
<polygon points = "392.131, 212.708 401.627, 226.319 420.040, 226.182 464.502, 156.703 439.604, 124.470 394.997, 196.766 "
fill = "white" stroke = "black"/>
</g>
<g>
<polygon points = "667.871, 282.740 705.962, 314.409 738.411, 324.133 713.995, 274.425 707.491, 270.142 672.071, 265.073 "
fill = "white" stroke = "black"/>
</g>
<g>
<polygon points = "943.198, 101.581 1000.000, 90.959 1000.000, 0.000 923.251, 0.000 "
fill = "white" stroke = "black"/>
</g>
<g>
<polygon points = "824.716, 684.715 807.823, 755.771 807.361, 763.416 842.386, 769.515 892.637, 663.319 886.370, 658.336 "
fill = "white" stroke = "black"/>
</g>
<g>
<polygon points = "590.798, 469.859 486.265, 416.371 484.084, 447.891 488.359, 481.251 593.444, 500.852 "
fill = "white" stroke = "black"/>
</g>
<g>
<polygon points = "57.290, 566.375 119.066, 621.210 153.137, 550.384 149.577, 537.910 106.228, 525.835 "
fill = "white" stroke = "black"/>
</g>
<g>
<polygon points = "535.390, 150.300 568.568, 139.090 616.235, 116.652 612.719, 92.936 577.283, 84.872 "
fill = "white" stroke = "black"/>
</g>
<g>
<polygon points = "471.919, 307.908 454.669, 254.914 438.450, 232.764 420.040, 226.182 401.627, 226.319 390.171, 249.710 459.831, 308.350 471.816, 314.639 "
fill = "white" stroke = "black"/>
</g>
<g>
<polygon points = "844.952, 265.133 852.172, 319.477 925.809, 298.947 927.333, 289.615 917.699, 264.212 862.725, 215.730 "
fill = "white" stroke = "black"/>
</g>
<g>
<polygon points = "813.169, 360.821 842.073, 335.470 852.172, 319.477 844.952, 265.133 827.651, 272.773 774.687, 342.464 "
fill = "white" stroke = "black"/>
</g>
<g>
<polygon points = "766.921, 984.053 766.570, 982.530 707.625, 931.162 691.648, 937.966 689.741, 941.176 699.240, 1000.000 767.554, 1000.000 "
fill = "white" stroke = "black"/>
</g>
<g>
<polygon points = "959.683, 433.162 923.182, 411.029 873.226, 419.526 868.436, 517.901 958.953, 435.534 "
fill = "white" stroke = "black"/>
</g>
<g>
<polygon points = "495.383, 983.800 502.272, 975.225 465.631, 894.671 450.127, 897.737 406.842, 918.485 406.334, 943.102 "
fill = "white" stroke = "black"/>
</g>
<g>
<polygon points = "714.973, 454.745 656.865, 496.604 706.435, 525.575 717.583, 531.155 739.161, 496.869 742.287, 482.069 720.743, 453.590 "
fill = "white" stroke = "black"/>
</g>
<g>
<polygon points = "633.681, 298.628 599.670, 309.385 592.448, 320.998 601.214, 352.299 615.624, 360.456 628.923, 351.063 "
fill = "white" stroke = "black"/>
</g>
<g>
<polygon points = "163.849, 59.642 162.620, 62.461 188.364, 132.887 199.443, 125.693 252.266, 77.798 252.366, 75.042 221.672, 52.930 "
fill = "white" stroke = "black"/>
</g>
<g>
<polygon points = "874.355, 48.354 861.657, 65.710 847.274, 161.960 864.160, 176.120 921.062, 156.337 921.466, 119.011 "
fill = "white" stroke = "black"/>
</g>
<g>
<polygon points = "563.745, 938.541 572.033, 938.635 580.076, 900.024 520.826, 819.331 507.047, 892.385 "
fill = "white" stroke = "black"/>
</g>
<g>
<polygon points = "360.498, 50.740 361.447, 52.918 391.670, 46.560 487.857, 0.000 355.175, 0.000 "
fill = "white" stroke = "black"/>
</g>
<g>
<polygon points = "149.577, 537.910 153.137, 550.384 183.750, 600.943 218.218, 543.734 182.565, 505.851 "
fill = "white" stroke = "black"/>
</g>
<g>
<polygon points = "259.288, 445.925 283.851, 505.682 322.036, 501.578 324.395, 441.499 "
fill = "white" stroke = "black"/>
</g>
<g>
<polygon points = "879.568, 635.035 918.042, 548.725 864.020, 529.426 850.521, 534.896 840.622, 597.378 "
fill = "white" stroke = "black"/>
</g>
<g>
<polygon points = "509.119, 182.035 514.202, 173.209 464.502, 156.703 420.040, 226.182 438.450, 232.764 "
fill = "white" stroke = "black"/>
</g>
<g>
<polygon points = "370.238, 783.855 364.768, 752.643 305.244, 746.208 302.471, 751.781 301.243, 768.055 324.128, 821.796 355.830, 825.947 "
fill = "white" stroke = "black"/>
</g>
<g>
<polygon points = "999.229, 791.621 953.975, 825.245 974.067, 904.182 1000.000, 920.858 1000.000, 791.538 "
fill = "white" stroke = "black"/>
</g>
<g>
<polygon points = "582.891, 386.592 598.524, 428.800 625.288, 441.297 647.011, 428.049 650.066, 422.889 625.826, 367.491 615.624, 360.456 601.214, 352.299 "
fill = "white" stroke = "black"/>
</g>
<g>
<polygon points = "88.564, 981.317 15.399, 954.582 0.000, 953.273 0.000, 1000.000 88.933, 1000.000 "
fill = "white" stroke = "black"/>
</g>
<g>
<polygon points = "763.653, 341.409 774.687, 342.464 827.651, 272.773 772.099, 245.089 761.361, 248.054 759.050, 252.555 "
fill = "white" stroke = "black"/>
</g>
<g>
<polygon points = "332.783, 670.211 334.545, 669.667 343.368, 665.468 367.492, 611.878 329.932, 578.913 313.452, 577.993 309.422, 588.015 312.030, 643.849 "
fill = "white" stroke = "black"/>
</g>
<g>
<polygon points = "701.975, 352.669 709.753, 371.929 733.361, 378.428 754.939, 343.934 738.411, 324.133 705.962, 314.409 "
fill = "white" stroke = "black"/>
</g>
<g>
<polygon points = "109.348, 205.738 169.073, 226.273 169.530, 226.035 190.875, 176.435 184.050, 138.970 130.929, 172.472 109.007, 205.458 "
fill = "white" stroke = "black"/>
</g>
<g>
<polygon points = "758.198, 111.314 687.795, 137.055 687.708, 137.174 685.224, 152.841 743.636, 175.066 768.378, 152.823 777.052, 139.682 "
fill = "white" stroke = "black"/>
</g>
<g>
<polygon points = "88.610, 981.231 147.205, 923.282 148.344, 921.674 150.724, 910.326 132.296, 899.148 101.011, 900.071 87.302, 919.897 "
fill = "white" stroke = "black"/>
</g>
<g>
<polygon points = "813.163, 380.671 813.169, 360.821 774.687, 342.464 763.653, 341.409 754.939, 343.934 733.361, 378.428 733.138, 383.905 753.638, 410.964 768.137, 411.165 "
fill = "white" stroke = "black"/>
</g>
<g>
<polygon points = "180.261, 759.881 181.336, 833.026 194.650, 851.204 194.704, 851.194 240.740, 828.184 217.360, 780.045 "
fill = "white" stroke = "black"/>
</g>
<g>
<polygon points = "119.066, 621.210 57.290, 566.375 54.257, 567.413 31.306, 637.754 117.627, 674.500 126.048, 662.706 "
fill = "white" stroke = "black"/>
</g>
<g>
<polygon points = "874.355, 48.354 921.466, 119.011 943.198, 101.581 923.251, 0.000 868.996, 0.000 "
fill = "white" stroke = "black"/>
</g>
<g>
<polygon points = "435.767, 740.424 405.181, 663.361 343.368, 665.468 334.545, 669.667 388.264, 740.315 "
fill = "white" stroke = "black"/>
</g>
<g>
<polygon points = "739.568, 780.321 713.129, 715.999 626.428, 736.128 717.266, 789.641 "
fill = "white" stroke = "black"/>
</g>
<g>
<polygon points = "777.052, 139.682 768.378, 152.823 815.347, 205.605 860.582, 198.153 864.160, 176.120 847.274, 161.960 "
fill = "white" stroke = "black"/>
</g>
<g>
<polygon points = "483.068, 733.748 460.371, 675.997 423.090, 657.145 405.181, 663.361 435.767, 740.424 472.868, 758.730 482.949, 741.134 "
fill = "white" stroke = "black"/>
</g>
<g>
<polygon points = "244.902, 980.356 148.344, 921.674 147.205, 923.282 170.980, 1000.000 255.271, 1000.000 "
fill = "white" stroke = "black"/>
</g>
<g>
<polygon points = "160.038, 52.162 163.849, 59.642 221.672, 52.930 222.329, 0.000 152.472, 0.000 "
fill = "white" stroke = "black"/>
</g>
<g>
<polygon points = "260.651, 225.215 285.871, 211.638 277.324, 185.985 190.875, 176.435 169.530, 226.035 "
fill = "white" stroke = "black"/>
</g>
<g>
<polygon points = "188.474, 621.697 183.750, 600.943 153.137, 550.384 119.066, 621.210 126.048, 662.706 177.296, 634.451 "
fill = "white" stroke = "black"/>
</g>
<g>
<polygon points = "600.968, 851.633 623.251, 848.746 634.274, 796.415 594.809, 744.332 584.005, 750.846 560.666, 788.697 "
fill = "white" stroke = "black"/>
</g>
<g>
<polygon points = "795.981, 771.961 794.403, 837.557 888.283, 839.116 885.642, 826.579 845.524, 773.103 842.386, 769.515 807.361, 763.416 "
fill = "white" stroke = "black"/>
</g>
<g>
<polygon points = "971.690, 678.683 957.646, 782.820 999.229, 791.621 1000.000, 791.538 1000.000, 679.494 "
fill = "white" stroke = "black"/>
</g>
<g>
<polygon points = "159.868, 903.654 236.306, 924.948 250.207, 883.460 194.704, 851.194 194.650, 851.204 "
fill = "white" stroke = "black"/>
</g>
<g>
<polygon points = "239.610, 425.486 228.469, 351.584 206.514, 320.057 184.851, 352.148 180.244, 377.977 233.055, 432.989 236.133, 432.300 "
fill = "white" stroke = "black"/>
</g>
<g>
<polygon points = "706.576, 211.982 737.178, 192.287 743.636, 175.066 685.224, 152.841 667.607, 179.361 663.938, 212.222 "
fill = "white" stroke = "black"/>
</g>
<g>
<polygon points = "672.071, 265.073 707.491, 270.142 706.576, 211.982 663.938, 212.222 660.751, 216.966 658.746, 253.712 "
fill = "white" stroke = "black"/>
</g>
<g>
<polygon points = "733.138, 383.905 733.361, 378.428 709.753, 371.929 625.826, 367.491 650.066, 422.889 "
fill = "white" stroke = "black"/>
</g>
<g>
<polygon points = "4.770, 429.150 87.015, 413.353 97.332, 401.828 66.739, 382.318 0.000, 391.529 0.000, 428.942 "
fill = "white" stroke = "black"/>
</g>
<g>
<polygon points = "188.474, 621.697 177.296, 634.451 179.265, 707.757 269.627, 662.873 211.866, 627.131 "
fill = "white" stroke = "black"/>
</g>
<g>
<polygon points = "650.534, 879.717 649.373, 892.324 691.648, 937.966 707.625, 931.162 743.734, 905.803 688.739, 842.826 "
fill = "white" stroke = "black"/>
</g>
<g>
<polygon points = "768.137, 411.165 753.638, 410.964 720.743, 453.590 742.287, 482.069 807.412, 476.788 807.404, 475.981 "
fill = "white" stroke = "black"/>
</g>
<g>
<polygon points = "525.842, 378.921 480.496, 401.645 480.439, 402.134 486.057, 410.126 594.756, 430.473 598.524, 428.800 582.891, 386.592 "
fill = "white" stroke = "black"/>
</g>
<g>
<polygon points = "326.116, 253.185 287.931, 290.830 302.626, 316.721 304.748, 318.682 357.319, 326.110 363.174, 321.795 363.829, 318.249 364.819, 270.739 "
fill = "white" stroke = "black"/>
</g>
<g>
<polygon points = "150.724, 910.326 159.868, 903.654 194.650, 851.204 181.336, 833.026 166.903, 828.299 132.855, 843.516 132.296, 899.148 "
fill = "white" stroke = "black"/>
</g>
<g>
<polygon points = "464.502, 156.703 514.202, 173.209 522.909, 169.530 524.549, 158.126 508.138, 120.873 438.115, 118.643 439.604, 124.470 "
fill = "white" stroke = "black"/>
</g>
<g>
<polygon points = "813.163, 380.671 768.137, 411.165 807.404, 475.981 861.094, 416.916 "
fill = "white" stroke = "black"/>
</g>
<g>
<polygon points = "723.002, 687.714 807.823, 755.771 824.716, 684.715 811.255, 666.189 722.950, 687.240 "
fill = "white" stroke = "black"/>
</g>
<g>
<polygon points = "104.352, 522.703 106.228, 525.835 149.577, 537.910 182.565, 505.851 193.798, 481.602 194.888, 478.420 148.998, 470.230 "
fill = "white" stroke = "black"/>
</g>
<g>
<polygon points = "321.282, 406.665 280.532, 398.237 239.610, 425.486 236.133, 432.300 259.288, 445.925 324.395, 441.499 338.679, 433.812 "
fill = "white" stroke = "black"/>
</g>
<g>
<polygon points = "571.275, 614.667 570.998, 593.445 557.437, 586.414 458.582, 552.096 454.136, 554.867 452.756, 565.638 479.084, 591.458 565.815, 623.726 "
fill = "white" stroke = "black"/>
</g>
<g>
<polygon points = "332.783, 670.211 312.030, 643.849 229.600, 624.733 211.866, 627.131 269.627, 662.873 319.491, 682.885 "
fill = "white" stroke = "black"/>
</g>
<g>
<polygon points = "390.805, 547.988 383.980, 602.612 423.032, 607.368 452.756, 565.638 454.136, 554.867 436.473, 531.479 "
fill = "white" stroke = "black"/>
</g>
<g>
<polygon points = "479.084, 591.458 452.756, 565.638 423.032, 607.368 423.090, 657.145 460.371, 675.997 467.102, 672.045 "
fill = "white" stroke = "black"/>
</g>
<g>
<polygon points = "272.471, 946.337 341.564, 984.116 350.590, 901.827 331.280, 884.327 "
fill = "white" stroke = "black"/>
</g>
<g>
<polygon points = "364.768, 752.643 388.264, 740.315 334.545, 669.667 332.783, 670.211 319.491, 682.885 312.357, 701.476 305.244, 746.208 "
fill = "white" stroke = "black"/>
</g>
<g>
<polygon points = "709.753, 371.929 701.975, 352.669 628.923, 351.063 615.624, 360.456 625.826, 367.491 "
fill = "white" stroke = "black"/>
</g>
<g>
<polygon points = "536.311, 324.433 551.679, 314.590 542.606, 260.034 471.919, 307.908 471.816, 314.639 477.285, 327.249 "
fill = "white" stroke = "black"/>
</g>
<g>
<polygon points = "725.976, 67.277 758.726, 104.911 773.163, 76.467 784.505, 0.000 709.657, 0.000 "
fill = "white" stroke = "black"/>
</g>
<g>
<polygon points = "391.670, 46.560 361.447, 52.918 363.115, 64.542 366.700, 68.187 377.760, 77.272 424.156, 100.136 487.290, 61.787 "
fill = "white" stroke = "black"/>
</g>
<g>
<polygon points = "329.932, 578.913 348.186, 516.156 322.036, 501.578 283.851, 505.682 281.162, 512.331 313.452, 577.993 "
fill = "white" stroke = "black"/>
</g>
<g>
<polygon points = "480.496, 401.645 525.842, 378.921 536.311, 324.433 477.285, 327.249 465.976, 371.592 "
fill = "white" stroke = "black"/>
</g>
<g>
<polygon points = "480.439, 402.134 480.496, 401.645 465.976, 371.592 452.230, 368.940 388.986, 416.812 387.260, 427.092 428.297, 435.817 "
fill = "white" stroke = "black"/>
</g>
<g>
<polygon points = "953.975, 825.245 891.639, 846.879 893.397, 858.026 908.559, 871.072 974.067, 904.182 "
fill = "white" stroke = "black"/>
</g>
<g>
<polygon points = "593.463, 691.444 599.144, 703.198 602.011, 701.834 699.198, 616.767 668.447, 604.268 641.694, 598.137 "
fill = "white" stroke = "black"/>
</g>
<g>
<polygon points = "486.265, 416.371 590.798, 469.859 594.756, 430.473 486.057, 410.126 "
fill = "white" stroke = "black"/>
</g>
<g>
<polygon points = "861.190, 951.660 835.028, 949.358 805.266, 1000.000 887.024, 1000.000 "
fill = "white" stroke = "black"/>
</g>
<g>
<polygon points = "280.532, 398.237 304.748, 318.682 302.626, 316.721 228.469, 351.584 239.610, 425.486 "
fill = "white" stroke = "black"/>
</g>
<g>
<polygon points = "505.305, 40.824 495.865, 58.747 510.161, 100.961 573.187, 81.323 564.521, 51.831 "
fill = "white" stroke = "black"/>
</g>
<g>
<polygon points = "269.033, 67.757 360.498, 50.740 355.175, 0.000 312.176, 0.000 "
fill = "white" stroke = "black"/>
</g>
<g>
<polygon points = "277.324, 185.985 288.457, 143.578 199.443, 125.693 188.364, 132.887 184.050, 138.970 190.875, 176.435 "
fill = "white" stroke = "black"/>
</g>
<g>
<polygon points = "627.788, 542.366 706.435, 525.575 656.865, 496.604 636.397, 500.339 623.055, 523.573 "
fill = "white" stroke = "black"/>
</g>
<g>
<polygon points = "835.028, 949.358 811.948, 923.734 766.921, 984.053 767.554, 1000.000 805.266, 1000.000 "
fill = "white" stroke = "black"/>
</g>
<g>
<polygon points = "210.875, 291.574 169.073, 226.273 109.348, 205.738 122.189, 257.172 210.297, 293.008 "
fill = "white" stroke = "black"/>
</g>
<g>
<polygon points = "668.447, 604.268 699.198, 616.767 721.136, 622.313 748.245, 615.247 722.109, 558.518 "
fill = "white" stroke = "black"/>
</g>
<g>
<polygon points = "544.112, 252.002 608.847, 283.722 610.468, 280.793 605.708, 229.947 597.042, 223.330 559.424, 213.064 "
fill = "white" stroke = "black"/>
</g>
<g>
<polygon points = "927.333, 289.615 925.809, 298.947 942.211, 338.256 1000.000, 375.135 1000.000, 239.656 "
fill = "white" stroke = "black"/>
</g>
<g>
<polygon points = "249.305, 283.883 287.931, 290.830 326.116, 253.185 318.713, 214.284 285.871, 211.638 260.651, 225.215 "
fill = "white" stroke = "black"/>
</g>
<g>
<polygon points = "147.205, 923.282 88.610, 981.231 88.564, 981.317 88.933, 1000.000 170.980, 1000.000 "
fill = "white" stroke = "black"/>
</g>
<g>
<polygon points = "563.745, 938.541 507.047, 892.385 471.913, 890.280 465.631, 894.671 502.272, 975.225 "
fill = "white" stroke = "black"/>
</g>
<g>
<polygon points = "99.221, 115.187 130.929, 172.472 184.050, 138.970 188.364, 132.887 162.620, 62.461 "
fill = "white" stroke = "black"/>
</g>
<g>
<polygon points = "827.651, 272.773 844.952, 265.133 862.725, 215.730 860.582, 198.153 815.347, 205.605 772.099, 245.089 "
fill = "white" stroke = "black"/>
</g>
<g>
<polygon points = "495.383, 983.800 406.334, 943.102 343.775, 997.916 343.282, 1000.000 494.667, 1000.000 "
fill = "white" stroke = "black"/>
</g>
<g>
<polygon points = "623.055, 523.573 636.397, 500.339 625.288, 441.297 598.524, 428.800 594.756, 430.473 590.798, 469.859 593.444, 500.852 599.174, 515.275 610.297, 525.721 "
fill = "white" stroke = "black"/>
</g>
<g>
<polygon points = "87.015, 413.353 4.770, 429.150 93.224, 511.832 "
fill = "white" stroke = "black"/>
</g>
<g>
<polygon points = "435.767, 740.424 388.264, 740.315 364.768, 752.643 370.238, 783.855 461.384, 786.879 473.259, 776.590 472.868, 758.730 "
fill = "white" stroke = "black"/>
</g>
<g>
<polygon points = "388.986, 416.812 452.230, 368.940 363.174, 321.795 357.319, 326.110 357.153, 330.702 "
fill = "white" stroke = "black"/>
</g>
<g>
<polygon points = "608.847, 283.722 599.670, 309.385 633.681, 298.628 667.871, 282.740 672.071, 265.073 658.746, 253.712 610.468, 280.793 "
fill = "white" stroke = "black"/>
</g>
<g>
<polygon points = "599.144, 703.198 593.463, 691.444 578.498, 678.650 483.068, 733.748 482.949, 741.134 584.005, 750.846 594.809, 744.332 604.181, 728.052 "
fill = "white" stroke = "black"/>
</g>
<g>
<polygon points = "824.716, 684.715 886.370, 658.336 879.568, 635.035 840.622, 597.378 794.254, 615.603 786.525, 620.978 811.255, 666.189 "
fill = "white" stroke = "black"/>
</g>
<g>
<polygon points = "604.181, 728.052 626.428, 736.128 713.129, 715.999 723.002, 687.714 722.950, 687.240 718.342, 674.492 602.011, 701.834 599.144, 703.198 "
fill = "white" stroke = "black"/>
</g>
<g>
<polygon points = "15.399, 954.582 59.945, 916.034 33.917, 879.530 0.000, 890.949 0.000, 953.273 "
fill = "white" stroke = "black"/>
</g>
<g>
<polygon points = "522.095, 235.839 543.585, 252.790 544.112, 252.002 559.424, 213.064 550.178, 195.442 522.909, 169.530 514.202, 173.209 509.119, 182.035 "
fill = "white" stroke = "black"/>
</g>
<g>
<polygon points = "244.902, 980.356 251.599, 944.557 236.306, 924.948 159.868, 903.654 150.724, 910.326 148.344, 921.674 "
fill = "white" stroke = "black"/>
</g>
<g>
<polygon points = "86.596, 879.521 79.064, 795.231 46.153, 764.559 33.856, 815.120 43.961, 839.957 "
fill = "white" stroke = "black"/>
</g>
<g>
<polygon points = "713.129, 715.999 739.568, 780.321 795.981, 771.961 807.361, 763.416 807.823, 755.771 723.002, 687.714 "
fill = "white" stroke = "black"/>
</g>
<g>
<polygon points = "54.257, 567.413 57.290, 566.375 106.228, 525.835 104.352, 522.703 93.505, 512.812 0.000, 507.661 0.000, 526.746 "
fill = "white" stroke = "black"/>
</g>
<g>
<polygon points = "431.179, 501.051 484.084, 447.891 486.265, 416.371 486.057, 410.126 480.439, 402.134 428.297, 435.817 428.754, 494.688 "
fill = "white" stroke = "black"/>
</g>
<g>
<polygon points = "461.384, 786.879 421.858, 829.567 450.127, 897.737 465.631, 894.671 471.913, 890.280 477.563, 781.998 473.259, 776.590 "
fill = "white" stroke = "black"/>
</g>
<g>
<polygon points = "318.713, 214.284 327.256, 204.531 321.287, 108.651 314.380, 109.415 288.457, 143.578 277.324, 185.985 285.871, 211.638 "
fill = "white" stroke = "black"/>
</g>
<g>
<polygon points = "753.638, 410.964 733.138, 383.905 650.066, 422.889 647.011, 428.049 714.973, 454.745 720.743, 453.590 "
fill = "white" stroke = "black"/>
</g>
<g>
<polygon points = "718.342, 674.492 721.136, 622.313 699.198, 616.767 602.011, 701.834 "
fill = "white" stroke = "black"/>
</g>
<g>
<polygon points = "0.000, 69.153 50.031, 86.239 66.251, 57.232 77.961, 0.000 0.000, 0.000 "
fill = "white" stroke = "black"/>
</g>
<g>
<polygon points = "599.876, 968.321 584.974, 945.426 572.033, 938.635 563.745, 938.541 502.272, 975.225 495.383, 983.800 494.667, 1000.000 601.362, 1000.000 "
fill = "white" stroke = "black"/>
</g>
<g>
<polygon points = "917.076, 981.086 871.214, 903.180 861.190, 951.660 887.024, 1000.000 921.700, 1000.000 "
fill = "white" stroke = "black"/>
</g>
<g>
<polygon points = "390.805, 547.988 436.473, 531.479 431.179, 501.051 428.754, 494.688 376.759, 484.291 348.388, 516.161 "
fill = "white" stroke = "black"/>
</g>
<g>
<polygon points = "608.847, 283.722 544.112, 252.002 543.585, 252.790 542.606, 260.034 551.679, 314.590 592.448, 320.998 599.670, 309.385 "
fill = "white" stroke = "black"/>
</g>
<g>
<polygon points = "636.397, 500.339 656.865, 496.604 714.973, 454.745 647.011, 428.049 625.288, 441.297 "
fill = "white" stroke = "black"/>
</g>
<g>
<polygon points = "59.945, 916.034 87.302, 919.897 101.011, 900.071 86.596, 879.521 43.961, 839.957 33.917, 879.530 "
fill = "white" stroke = "black"/>
</g>
<g>
<polygon points = "957.646, 782.820 949.515, 782.717 885.642, 826.579 888.283, 839.116 891.639, 846.879 953.975, 825.245 999.229, 791.621 "
fill = "white" stroke = "black"/>
</g>
<g>
<polygon points = "388.986, 416.812 357.153, 330.702 321.282, 406.665 338.679, 433.812 367.231, 433.898 387.260, 427.092 "
fill = "white" stroke = "black"/>
</g>
<g>
<polygon points = "650.534, 879.717 623.251, 848.746 600.968, 851.633 580.076, 900.024 572.033, 938.635 584.974, 945.426 649.373, 892.324 "
fill = "white" stroke = "black"/>
</g>
<g>
<polygon points = "505.305, 40.824 564.521, 51.831 573.364, 38.293 571.945, 0.000 508.553, 0.000 "
fill = "white" stroke = "black"/>
</g>
<g>
<polygon points = "352.751, 203.521 366.700, 68.187 363.115, 64.542 321.287, 108.651 327.256, 204.531 "
fill = "white" stroke = "black"/>
</g>
<g>
<polygon points = "957.646, 782.820 971.690, 678.683 912.083, 669.273 928.088, 741.939 949.515, 782.717 "
fill = "white" stroke = "black"/>
</g>
<g>
<polygon points = "183.750, 600.943 188.474, 621.697 211.866, 627.131 229.600, 624.733 252.660, 578.852 232.081, 542.753 218.218, 543.734 "
fill = "white" stroke = "black"/>
</g>
<g>
<polygon points = "847.274, 161.960 861.657, 65.710 773.163, 76.467 758.726, 104.911 758.198, 111.314 777.052, 139.682 "
fill = "white" stroke = "black"/>
</g>
<g>
<polygon points = "249.305, 283.883 260.651, 225.215 169.530, 226.035 169.073, 226.273 210.875, 291.574 "
fill = "white" stroke = "black"/>
</g>
<g>
<polygon points = "717.583, 531.155 706.435, 525.575 627.788, 542.366 638.859, 595.378 641.694, 598.137 668.447, 604.268 722.109, 558.518 721.848, 556.182 "
fill = "white" stroke = "black"/>
</g>
<g>
<polygon points = "302.626, 316.721 287.931, 290.830 249.305, 283.883 210.875, 291.574 210.297, 293.008 206.514, 320.057 228.469, 351.584 "
fill = "white" stroke = "black"/>
</g>
<g>
<polygon points = "46.153, 764.559 79.064, 795.231 79.595, 795.505 134.040, 742.978 132.008, 715.466 125.706, 711.712 40.301, 745.309 "
fill = "white" stroke = "black"/>
</g>
<g>
<polygon points = "104.352, 522.703 148.998, 470.230 104.508, 400.372 97.332, 401.828 87.015, 413.353 93.224, 511.832 93.505, 512.812 "
fill = "white" stroke = "black"/>
</g>
<g>
<polygon points = "46.153, 764.559 40.301, 745.309 0.000, 710.608 0.000, 810.494 33.856, 815.120 "
fill = "white" stroke = "black"/>
</g>
<g>
<polygon points = "638.859, 595.378 627.788, 542.366 623.055, 523.573 610.297, 525.721 570.998, 593.445 571.275, 614.667 "
fill = "white" stroke = "black"/>
</g>
<g>
<polygon points = "122.189, 257.172 109.348, 205.738 109.007, 205.458 82.086, 198.847 71.048, 226.253 90.073, 305.164 118.617, 297.104 "
fill = "white" stroke = "black"/>
</g>
<g>
<polygon points = "392.131, 212.708 394.997, 196.766 377.760, 77.272 366.700, 68.187 352.751, 203.521 "
fill = "white" stroke = "black"/>
</g>
<g>
<polygon points = "66.251, 57.232 160.038, 52.162 152.472, 0.000 77.961, 0.000 "
fill = "white" stroke = "black"/>
</g>
<g>
<polygon points = "59.945, 916.034 15.399, 954.582 88.564, 981.317 88.610, 981.231 87.302, 919.897 "
fill = "white" stroke = "black"/>
</g>
<g>
<polygon points = "522.095, 235.839 509.119, 182.035 438.450, 232.764 454.669, 254.914 "
fill = "white" stroke = "black"/>
</g>
<g>
<polygon points = "912.083, 669.273 901.571, 664.070 892.637, 663.319 842.386, 769.515 845.524, 773.103 928.088, 741.939 "
fill = "white" stroke = "black"/>
</g>
<g>
<polygon points = "401.627, 226.319 392.131, 212.708 352.751, 203.521 327.256, 204.531 318.713, 214.284 326.116, 253.185 364.819, 270.739 390.171, 249.710 "
fill = "white" stroke = "black"/>
</g>
<g>
<polygon points = "542.606, 260.034 543.585, 252.790 522.095, 235.839 454.669, 254.914 471.919, 307.908 "
fill = "white" stroke = "black"/>
</g>
<g>
<polygon points = "633.681, 298.628 628.923, 351.063 701.975, 352.669 705.962, 314.409 667.871, 282.740 "
fill = "white" stroke = "black"/>
</g>
<g>
<polygon points = "707.625, 931.162 766.570, 982.530 773.095, 892.673 743.734, 905.803 "
fill = "white" stroke = "black"/>
</g>
<g>
<polygon points = "217.360, 780.045 240.740, 828.184 258.831, 823.484 301.243, 768.055 302.471, 751.781 282.018, 749.014 "
fill = "white" stroke = "black"/>
</g>
<g>
<polygon points = "525.842, 378.921 582.891, 386.592 601.214, 352.299 592.448, 320.998 551.679, 314.590 536.311, 324.433 "
fill = "white" stroke = "black"/>
</g>
<g>
<polygon points = "593.463, 691.444 641.694, 598.137 638.859, 595.378 571.275, 614.667 565.815, 623.726 563.042, 649.080 578.498, 678.650 "
fill = "white" stroke = "black"/>
</g>
<g>
<polygon points = "168.317, 722.787 180.261, 759.881 217.360, 780.045 282.018, 749.014 188.399, 719.546 177.018, 718.231 "
fill = "white" stroke = "black"/>
</g>
<g>
<polygon points = "714.534, 794.193 634.274, 796.415 623.251, 848.746 650.534, 879.717 688.739, 842.826 714.242, 798.502 "
fill = "white" stroke = "black"/>
</g>
<g>
<polygon points = "739.568, 780.321 717.266, 789.641 714.534, 794.193 714.242, 798.502 782.389, 866.798 794.403, 837.557 795.981, 771.961 "
fill = "white" stroke = "black"/>
</g>
<g>
<polygon points = "66.739, 382.318 76.264, 330.030 22.384, 331.927 0.000, 358.802 0.000, 391.529 "
fill = "white" stroke = "black"/>
</g>
<g>
<polygon points = "66.251, 57.232 50.031, 86.239 65.877, 118.466 99.221, 115.187 162.620, 62.461 163.849, 59.642 160.038, 52.162 "
fill = "white" stroke = "black"/>
</g>
</svg>
