<svg xmlns = "http://www.w3.org/2000/svg" width = "1000" height = "1000">
<g>
<polygon points = "23.861, 849.088 16.427, 878.377 0.000, 883.907 0.000, 845.828 "
fill = "white" stroke = "black"/>
</g>
<g>
<polygon points = "756.124, 605.337 725.470, 538.797 726.326, 537.604 769.688, 540.478 762.342, 601.013 "
fill = "white" stroke = "black"/>
</g>
<g>
<polygon points = "461.184, 779.615 461.152, 778.175 480.139, 745.035 593.050, 755.886 592.926, 759.853 561.502, 810.817 527.613, 822.006 475.880, 798.086 "
fill = "white" stroke = "black"/>
</g>
<g>
<polygon points = "27.168, 330.281 34.186, 307.465 58.665, 291.516 67.668, 328.855 "
fill = "white" stroke = "black"/>
</g>
<g>
<polygon points = "704.309, 77.907 643.204, 78.609 634.261, 70.082 633.743, 59.081 647.466, 0.000 685.410, 0.000 "
fill = "white" stroke = "black"/>
</g>
<g>
<polygon points = "369.450, 432.536 420.045, 443.292 420.512, 503.461 369.058, 493.173 358.309, 436.322 "
fill = "white" stroke = "black"/>
</g>
<g>
<polygon points = "841.875, 976.275 827.000, 974.966 816.535, 963.347 814.260, 920.556 853.680, 919.189 "
fill = "white" stroke = "black"/>
</g>
<g>
<polygon points = "30.007, 434.957 92.727, 493.585 94.014, 498.073 94.007, 498.560 0.000, 493.381 0.000, 433.652 "
fill = "white" stroke = "black"/>
</g>
<g>
<polygon points = "605.891, 976.556 700.210, 948.065 708.596, 1000.000 606.991, 1000.000 "
fill = "white" stroke = "black"/>
</g>
<g>
<polygon points = "326.930, 967.787 335.234, 892.074 379.951, 881.239 423.937, 906.445 422.999, 951.949 368.158, 1000.000 332.090, 1000.000 "
fill = "white" stroke = "black"/>
</g>
<g>
<polygon points = "428.559, 357.440 369.671, 326.266 372.569, 310.573 449.529, 302.638 470.457, 313.620 457.840, 363.089 "
fill = "white" stroke = "black"/>
</g>
<g>
<polygon points = "564.933, 66.931 571.893, 56.277 633.743, 59.081 634.261, 70.082 601.412, 100.724 578.931, 95.608 571.458, 89.134 "
fill = "white" stroke = "black"/>
</g>
<g>
<polygon points = "804.488, 485.871 861.853, 422.764 868.526, 424.200 864.172, 513.608 862.844, 517.075 836.230, 527.859 811.582, 506.174 804.575, 494.825 "
fill = "white" stroke = "black"/>
</g>
<g>
<polygon points = "71.297, 333.834 111.245, 322.554 105.761, 394.058 65.056, 368.099 "
fill = "white" stroke = "black"/>
</g>
<g>
<polygon points = "373.270, 276.924 396.295, 257.825 449.529, 302.638 372.569, 310.573 "
fill = "white" stroke = "black"/>
</g>
<g>
<polygon points = "919.667, 287.426 844.535, 221.168 850.064, 187.116 932.152, 158.577 954.566, 174.387 "
fill = "white" stroke = "black"/>
</g>
<g>
<polygon points = "235.037, 983.543 245.191, 929.271 258.577, 930.413 326.930, 967.787 332.090, 1000.000 243.723, 1000.000 "
fill = "white" stroke = "black"/>
</g>
<g>
<polygon points = "785.095, 666.543 717.796, 682.586 710.730, 679.797 708.452, 673.495 710.683, 631.823 713.532, 619.759 753.769, 609.271 "
fill = "white" stroke = "black"/>
</g>
<g>
<polygon points = "614.432, 284.756 609.743, 269.584 605.601, 225.337 657.478, 213.103 665.478, 226.317 663.800, 257.064 "
fill = "white" stroke = "black"/>
</g>
<g>
<polygon points = "988.269, 688.711 939.973, 681.087 920.484, 671.442 916.197, 663.560 964.249, 617.029 1000.000, 610.663 1000.000, 689.048 "
fill = "white" stroke = "black"/>
</g>
<g>
<polygon points = "234.617, 58.562 219.056, 47.353 219.644, 0.000 271.905, 0.000 "
fill = "white" stroke = "black"/>
</g>
<g>
<polygon points = "709.125, 226.072 730.777, 212.137 747.912, 251.651 709.818, 270.142 "
fill = "white" stroke = "black"/>
</g>
<g>
<polygon points = "582.026, 939.891 653.478, 880.972 706.232, 937.929 700.210, 948.065 605.891, 976.556 "
fill = "white" stroke = "black"/>
</g>
<g>
<polygon points = "673.570, 138.749 670.265, 143.310 610.572, 133.817 605.537, 128.548 601.412, 100.724 634.261, 70.082 643.204, 78.609 "
fill = "white" stroke = "black"/>
</g>
<g>
<polygon points = "250.672, 549.546 283.229, 529.316 285.706, 528.337 301.204, 559.852 293.984, 577.805 264.024, 572.969 "
fill = "white" stroke = "black"/>
</g>
<g>
<polygon points = "740.187, 515.581 743.526, 499.776 804.575, 494.825 811.582, 506.174 770.684, 536.556 "
fill = "white" stroke = "black"/>
</g>
<g>
<polygon points = "262.610, 755.560 188.101, 732.107 201.408, 714.353 309.643, 698.575 300.872, 753.737 290.057, 759.273 "
fill = "white" stroke = "black"/>
</g>
<g>
<polygon points = "315.581, 874.263 326.723, 806.341 370.573, 812.082 397.206, 833.862 379.951, 881.239 335.234, 892.074 "
fill = "white" stroke = "black"/>
</g>
<g>
<polygon points = "505.904, 61.472 520.635, 104.969 518.893, 122.109 441.166, 119.633 431.422, 106.715 "
fill = "white" stroke = "black"/>
</g>
<g>
<polygon points = "860.423, 917.196 904.293, 862.095 928.746, 933.604 907.679, 997.472 "
fill = "white" stroke = "black"/>
</g>
<g>
<polygon points = "946.961, 438.274 953.383, 440.614 941.149, 535.726 929.666, 540.947 862.844, 517.075 864.172, 513.608 "
fill = "white" stroke = "black"/>
</g>
<g>
<polygon points = "575.720, 672.485 480.420, 727.508 457.513, 669.221 482.253, 654.695 557.063, 636.788 "
fill = "white" stroke = "black"/>
</g>
<g>
<polygon points = "967.232, 547.934 941.149, 535.726 953.383, 440.614 1000.000, 428.763 1000.000, 549.217 "
fill = "white" stroke = "black"/>
</g>
<g>
<polygon points = "242.499, 925.820 255.027, 888.428 307.631, 872.914 312.090, 873.987 258.577, 930.413 245.191, 929.271 "
fill = "white" stroke = "black"/>
</g>
<g>
<polygon points = "928.746, 933.604 904.293, 862.095 905.309, 859.734 906.893, 857.481 1000.000, 904.540 1000.000, 954.031 "
fill = "white" stroke = "black"/>
</g>
<g>
<polygon points = "492.438, 586.196 559.275, 611.062 559.766, 612.075 557.063, 636.788 482.253, 654.695 "
fill = "white" stroke = "black"/>
</g>
<g>
<polygon points = "360.709, 41.516 366.167, 54.035 368.430, 69.810 318.820, 122.125 288.732, 125.452 237.783, 99.518 239.068, 64.146 "
fill = "white" stroke = "black"/>
</g>
<g>
<polygon points = "483.748, 538.409 500.910, 514.228 526.126, 517.712 545.480, 559.839 "
fill = "white" stroke = "black"/>
</g>
<g>
<polygon points = "908.297, 1000.000 907.679, 997.472 928.746, 933.604 1000.000, 954.031 1000.000, 1000.000 "
fill = "white" stroke = "black"/>
</g>
<g>
<polygon points = "735.077, 200.670 743.007, 193.541 779.692, 234.767 759.155, 253.516 753.823, 254.988 747.912, 251.651 730.777, 212.137 "
fill = "white" stroke = "black"/>
</g>
<g>
<polygon points = "785.833, 857.750 905.309, 859.734 904.293, 862.095 860.423, 917.196 853.680, 919.189 814.260, 920.556 783.452, 912.075 769.957, 901.302 770.203, 895.793 "
fill = "white" stroke = "black"/>
</g>
<g>
<polygon points = "34.186, 307.465 27.168, 330.281 0.000, 362.899 0.000, 289.850 "
fill = "white" stroke = "black"/>
</g>
<g>
<polygon points = "816.121, 388.181 816.132, 348.056 839.556, 327.512 910.488, 386.562 911.653, 416.864 868.526, 424.200 861.853, 422.764 "
fill = "white" stroke = "black"/>
</g>
<g>
<polygon points = "757.213, 320.450 734.435, 327.053 730.156, 321.927 706.842, 274.463 709.818, 270.142 747.912, 251.651 753.823, 254.988 "
fill = "white" stroke = "black"/>
</g>
<g>
<polygon points = "954.566, 174.387 932.152, 158.577 932.607, 116.591 976.075, 81.728 1000.000, 77.254 1000.000, 188.669 "
fill = "white" stroke = "black"/>
</g>
<g>
<polygon points = "204.445, 700.194 265.859, 669.689 313.405, 688.771 309.643, 698.575 201.408, 714.353 "
fill = "white" stroke = "black"/>
</g>
<g>
<polygon points = "347.713, 517.151 343.277, 517.042 332.394, 510.976 334.901, 447.138 355.019, 436.312 358.309, 436.322 369.058, 493.173 "
fill = "white" stroke = "black"/>
</g>
<g>
<polygon points = "590.766, 169.857 587.380, 137.095 605.537, 128.548 610.572, 133.817 606.980, 164.563 "
fill = "white" stroke = "black"/>
</g>
<g>
<polygon points = "400.012, 204.928 382.357, 82.536 431.422, 106.715 441.166, 119.633 445.178, 135.337 401.551, 206.043 "
fill = "white" stroke = "black"/>
</g>
<g>
<polygon points = "295.699, 614.522 248.626, 603.606 264.024, 572.969 293.984, 577.805 "
fill = "white" stroke = "black"/>
</g>
<g>
<polygon points = "582.019, 526.499 558.696, 566.692 545.480, 559.839 526.126, 517.712 568.453, 513.759 "
fill = "white" stroke = "black"/>
</g>
<g>
<polygon points = "312.090, 873.987 307.631, 872.914 242.492, 821.436 290.057, 759.273 300.872, 753.737 307.322, 760.779 326.723, 806.341 315.581, 874.263 "
fill = "white" stroke = "black"/>
</g>
<g>
<polygon points = "228.116, 440.096 199.884, 473.512 162.423, 457.532 125.996, 393.371 169.190, 378.715 "
fill = "white" stroke = "black"/>
</g>
<g>
<polygon points = "777.305, 996.724 783.452, 912.075 814.260, 920.556 816.535, 963.347 789.174, 1000.000 778.059, 1000.000 "
fill = "white" stroke = "black"/>
</g>
<g>
<polygon points = "562.381, 498.475 568.453, 513.759 526.126, 517.712 500.910, 514.228 504.061, 487.597 "
fill = "white" stroke = "black"/>
</g>
<g>
<polygon points = "931.281, 307.004 925.546, 302.929 919.667, 287.426 954.566, 174.387 1000.000, 188.669 1000.000, 259.759 "
fill = "white" stroke = "black"/>
</g>
<g>
<polygon points = "542.700, 152.190 534.692, 157.972 518.893, 122.109 520.635, 104.969 571.458, 89.134 578.931, 95.608 "
fill = "white" stroke = "black"/>
</g>
<g>
<polygon points = "665.375, 174.149 661.110, 180.568 619.569, 177.141 606.980, 164.563 610.572, 133.817 670.265, 143.310 "
fill = "white" stroke = "black"/>
</g>
<g>
<polygon points = "186.393, 758.481 187.364, 824.556 150.061, 812.340 137.495, 779.716 134.980, 745.651 148.623, 730.477 179.372, 736.677 "
fill = "white" stroke = "black"/>
</g>
<g>
<polygon points = "740.724, 914.374 684.750, 850.277 699.393, 824.828 770.203, 895.793 769.957, 901.302 "
fill = "white" stroke = "black"/>
</g>
<g>
<polygon points = "120.396, 671.392 148.623, 730.477 134.980, 745.651 53.499, 777.705 51.613, 777.370 0.000, 732.928 0.000, 697.828 "
fill = "white" stroke = "black"/>
</g>
<g>
<polygon points = "50.702, 571.865 39.168, 607.213 0.000, 661.671 0.000, 533.863 "
fill = "white" stroke = "black"/>
</g>
<g>
<polygon points = "66.032, 194.554 91.606, 209.726 58.665, 291.516 34.186, 307.465 0.000, 289.850 0.000, 194.038 "
fill = "white" stroke = "black"/>
</g>
<g>
<polygon points = "954.689, 747.899 969.613, 776.302 900.215, 823.958 868.318, 781.440 869.001, 780.242 "
fill = "white" stroke = "black"/>
</g>
<g>
<polygon points = "120.396, 671.392 125.050, 660.698 196.382, 621.369 202.574, 630.529 204.445, 700.194 201.408, 714.353 188.101, 732.107 179.372, 736.677 148.623, 730.477 "
fill = "white" stroke = "black"/>
</g>
<g>
<polygon points = "933.074, 311.301 910.488, 386.562 839.556, 327.512 840.022, 326.773 925.546, 302.929 931.281, 307.004 "
fill = "white" stroke = "black"/>
</g>
<g>
<polygon points = "118.638, 290.842 197.683, 322.992 172.467, 360.346 116.360, 316.301 "
fill = "white" stroke = "black"/>
</g>
<g>
<polygon points = "430.827, 587.748 430.907, 655.767 385.242, 671.618 330.415, 673.487 329.545, 673.382 326.894, 654.148 357.776, 585.547 367.569, 580.044 "
fill = "white" stroke = "black"/>
</g>
<g>
<polygon points = "516.047, 887.373 471.361, 884.696 475.880, 798.086 527.613, 822.006 527.655, 825.831 "
fill = "white" stroke = "black"/>
</g>
<g>
<polygon points = "533.062, 169.306 534.692, 157.972 542.700, 152.190 587.380, 137.095 590.766, 169.857 552.585, 187.857 "
fill = "white" stroke = "black"/>
</g>
<g>
<polygon points = "633.743, 59.081 571.893, 56.277 569.807, 0.000 647.466, 0.000 "
fill = "white" stroke = "black"/>
</g>
<g>
<polygon points = "587.119, 850.821 571.896, 886.082 527.655, 825.831 527.613, 822.006 561.502, 810.817 "
fill = "white" stroke = "black"/>
</g>
<g>
<polygon points = "964.249, 617.029 967.232, 547.934 1000.000, 549.217 1000.000, 610.663 "
fill = "white" stroke = "black"/>
</g>
<g>
<polygon points = "103.804, 406.466 107.662, 396.578 125.996, 393.371 162.423, 457.532 132.979, 452.278 "
fill = "white" stroke = "black"/>
</g>
<g>
<polygon points = "192.510, 497.146 191.949, 496.663 199.884, 473.512 228.116, 440.096 240.166, 437.400 264.811, 451.902 290.925, 515.432 285.706, 528.337 283.229, 529.316 "
fill = "white" stroke = "black"/>
</g>
<g>
<polygon points = "507.349, 56.227 507.200, 56.511 420.230, 42.662 508.363, 0.000 511.822, 0.000 "
fill = "white" stroke = "black"/>
</g>
<g>
<polygon points = "117.723, 826.793 102.719, 813.268 137.495, 779.716 150.061, 812.340 "
fill = "white" stroke = "black"/>
</g>
<g>
<polygon points = "353.690, 339.326 327.885, 393.972 289.957, 386.127 306.630, 331.352 353.738, 338.008 "
fill = "white" stroke = "black"/>
</g>
<g>
<polygon points = "116.360, 316.301 172.467, 360.346 169.190, 378.715 125.996, 393.371 107.662, 396.578 105.761, 394.058 111.245, 322.554 "
fill = "white" stroke = "black"/>
</g>
<g>
<polygon points = "593.168, 215.845 619.569, 177.141 661.110, 180.568 657.478, 213.103 605.601, 225.337 "
fill = "white" stroke = "black"/>
</g>
<g>
<polygon points = "242.379, 550.133 192.510, 497.146 283.229, 529.316 250.672, 549.546 "
fill = "white" stroke = "black"/>
</g>
<g>
<polygon points = "446.482, 792.352 421.974, 818.821 397.206, 833.862 370.573, 812.082 378.103, 790.083 "
fill = "white" stroke = "black"/>
</g>
<g>
<polygon points = "72.321, 65.761 82.789, 87.049 66.032, 194.554 0.000, 194.038 0.000, 41.062 "
fill = "white" stroke = "black"/>
</g>
<g>
<polygon points = "397.206, 833.862 421.974, 818.821 452.611, 892.701 423.937, 906.445 379.951, 881.239 "
fill = "white" stroke = "black"/>
</g>
<g>
<polygon points = "964.249, 617.029 916.197, 663.560 892.068, 644.372 888.702, 632.844 929.666, 540.947 941.149, 535.726 967.232, 547.934 "
fill = "white" stroke = "black"/>
</g>
<g>
<polygon points = "134.115, 82.003 166.817, 141.084 122.638, 207.560 98.827, 211.499 91.606, 209.726 66.032, 194.554 82.789, 87.049 "
fill = "white" stroke = "black"/>
</g>
<g>
<polygon points = "77.988, 800.529 102.719, 813.268 117.723, 826.793 117.215, 877.328 84.935, 878.281 "
fill = "white" stroke = "black"/>
</g>
<g>
<polygon points = "39.168, 607.213 114.253, 639.177 125.050, 660.698 120.396, 671.392 0.000, 697.828 0.000, 661.671 "
fill = "white" stroke = "black"/>
</g>
<g>
<polygon points = "197.267, 854.850 200.314, 842.237 241.322, 821.740 242.492, 821.436 307.631, 872.914 255.027, 888.428 "
fill = "white" stroke = "black"/>
</g>
<g>
<polygon points = "828.777, 574.901 762.342, 601.013 769.688, 540.478 770.684, 536.556 811.582, 506.174 836.230, 527.859 "
fill = "white" stroke = "black"/>
</g>
<g>
<polygon points = "373.052, 536.163 367.569, 580.044 357.776, 585.547 330.351, 561.478 343.277, 517.042 347.713, 517.151 "
fill = "white" stroke = "black"/>
</g>
<g>
<polygon points = "877.646, 34.162 843.162, 81.296 760.472, 91.347 774.020, 0.000 873.860, 0.000 "
fill = "white" stroke = "black"/>
</g>
<g>
<polygon points = "615.010, 717.739 618.989, 719.183 718.644, 777.891 700.528, 808.078 630.927, 810.005 592.926, 759.853 593.050, 755.886 "
fill = "white" stroke = "black"/>
</g>
<g>
<polygon points = "737.054, 115.537 673.570, 138.749 643.204, 78.609 704.309, 77.907 "
fill = "white" stroke = "black"/>
</g>
<g>
<polygon points = "268.829, 151.681 222.834, 142.440 212.125, 122.782 237.783, 99.518 288.732, 125.452 "
fill = "white" stroke = "black"/>
</g>
<g>
<polygon points = "498.566, 452.508 500.717, 461.499 504.061, 487.597 500.910, 514.228 483.748, 538.409 459.270, 553.668 454.982, 553.836 430.279, 521.125 "
fill = "white" stroke = "black"/>
</g>
<g>
<polygon points = "562.942, 207.595 552.585, 187.857 590.766, 169.857 606.980, 164.563 619.569, 177.141 593.168, 215.845 "
fill = "white" stroke = "black"/>
</g>
<g>
<polygon points = "740.187, 515.581 770.684, 536.556 769.688, 540.478 726.326, 537.604 "
fill = "white" stroke = "black"/>
</g>
<g>
<polygon points = "953.383, 440.614 946.961, 438.274 911.653, 416.864 910.488, 386.562 933.074, 311.301 1000.000, 354.010 1000.000, 428.763 "
fill = "white" stroke = "black"/>
</g>
<g>
<polygon points = "466.838, 163.377 428.772, 222.859 413.363, 222.974 401.551, 206.043 445.178, 135.337 "
fill = "white" stroke = "black"/>
</g>
<g>
<polygon points = "672.333, 301.322 679.642, 270.570 706.842, 274.463 730.156, 321.927 678.495, 306.445 "
fill = "white" stroke = "black"/>
</g>
<g>
<polygon points = "976.075, 81.728 960.027, 0.000 1000.000, 0.000 1000.000, 77.254 "
fill = "white" stroke = "black"/>
</g>
<g>
<polygon points = "869.001, 780.242 868.318, 781.440 788.005, 767.454 784.051, 764.184 785.690, 737.061 798.175, 684.544 892.068, 644.372 916.197, 663.560 920.484, 671.442 "
fill = "white" stroke = "black"/>
</g>
<g>
<polygon points = "561.897, 492.805 562.381, 498.475 504.061, 487.597 500.717, 461.499 "
fill = "white" stroke = "black"/>
</g>
<g>
<polygon points = "110.600, 526.265 147.538, 536.554 110.086, 614.408 58.969, 569.035 "
fill = "white" stroke = "black"/>
</g>
<g>
<polygon points = "605.537, 128.548 587.380, 137.095 542.700, 152.190 578.931, 95.608 601.412, 100.724 "
fill = "white" stroke = "black"/>
</g>
<g>
<polygon points = "413.363, 222.974 428.772, 222.859 453.423, 231.672 466.367, 249.350 476.823, 281.471 476.432, 306.884 470.457, 313.620 449.529, 302.638 396.295, 257.825 "
fill = "white" stroke = "black"/>
</g>
<g>
<polygon points = "925.546, 302.929 840.022, 326.773 830.654, 256.259 842.083, 224.488 844.535, 221.168 919.667, 287.426 "
fill = "white" stroke = "black"/>
</g>
<g>
<polygon points = "758.528, 320.576 795.665, 271.711 830.654, 256.259 840.022, 326.773 839.556, 327.512 816.132, 348.056 "
fill = "white" stroke = "black"/>
</g>
<g>
<polygon points = "706.232, 937.929 708.653, 936.898 777.305, 996.724 778.059, 1000.000 708.596, 1000.000 700.210, 948.065 "
fill = "white" stroke = "black"/>
</g>
<g>
<polygon points = "911.653, 416.864 946.961, 438.274 864.172, 513.608 868.526, 424.200 "
fill = "white" stroke = "black"/>
</g>
<g>
<polygon points = "490.003, 982.572 422.999, 951.949 423.937, 906.445 452.611, 892.701 462.788, 890.689 499.312, 970.987 "
fill = "white" stroke = "black"/>
</g>
<g>
<polygon points = "722.192, 538.447 668.814, 507.250 720.833, 469.778 743.526, 499.776 740.187, 515.581 726.326, 537.604 725.470, 538.797 "
fill = "white" stroke = "black"/>
</g>
<g>
<polygon points = "669.532, 320.998 637.774, 343.428 636.168, 343.489 614.782, 331.382 611.772, 320.635 671.273, 301.815 "
fill = "white" stroke = "black"/>
</g>
<g>
<polygon points = "168.062, 53.770 168.291, 53.245 219.056, 47.353 234.617, 58.562 239.068, 64.146 237.783, 99.518 212.125, 122.782 193.767, 124.088 "
fill = "white" stroke = "black"/>
</g>
<g>
<polygon points = "932.607, 116.591 932.152, 158.577 850.064, 187.116 829.878, 170.189 843.162, 81.296 877.646, 34.162 "
fill = "white" stroke = "black"/>
</g>
<g>
<polygon points = "571.896, 886.082 563.568, 926.059 516.047, 887.373 527.655, 825.831 "
fill = "white" stroke = "black"/>
</g>
<g>
<polygon points = "420.230, 42.662 366.167, 54.035 360.709, 41.516 356.353, 0.000 508.363, 0.000 "
fill = "white" stroke = "black"/>
</g>
<g>
<polygon points = "206.751, 609.267 198.002, 614.266 150.931, 536.525 191.949, 496.663 192.510, 497.146 242.379, 550.133 "
fill = "white" stroke = "black"/>
</g>
<g>
<polygon points = "290.925, 515.432 264.811, 451.902 334.901, 447.138 332.394, 510.976 "
fill = "white" stroke = "black"/>
</g>
<g>
<polygon points = "929.666, 540.947 888.702, 632.844 828.777, 574.901 836.230, 527.859 862.844, 517.075 "
fill = "white" stroke = "black"/>
</g>
<g>
<polygon points = "500.497, 197.880 453.423, 231.672 428.772, 222.859 466.838, 163.377 511.773, 178.301 "
fill = "white" stroke = "black"/>
</g>
<g>
<polygon points = "374.235, 768.013 378.103, 790.083 370.573, 812.082 326.723, 806.341 307.322, 760.779 "
fill = "white" stroke = "black"/>
</g>
<g>
<polygon points = "987.710, 827.965 1000.000, 818.833 1000.000, 876.251 "
fill = "white" stroke = "black"/>
</g>
<g>
<polygon points = "614.782, 331.382 636.168, 343.489 662.556, 403.793 648.436, 427.640 626.153, 441.231 604.535, 431.137 586.910, 383.547 "
fill = "white" stroke = "black"/>
</g>
<g>
<polygon points = "63.330, 977.002 83.123, 1000.000 0.000, 1000.000 0.000, 953.861 "
fill = "white" stroke = "black"/>
</g>
<g>
<polygon points = "795.665, 271.711 758.528, 320.576 757.213, 320.450 753.823, 254.988 759.155, 253.516 "
fill = "white" stroke = "black"/>
</g>
<g>
<polygon points = "330.351, 561.478 357.776, 585.547 326.894, 654.148 295.699, 614.522 293.984, 577.805 301.204, 559.852 "
fill = "white" stroke = "black"/>
</g>
<g>
<polygon points = "717.339, 354.381 687.005, 346.031 676.962, 321.161 678.495, 306.445 730.156, 321.927 734.435, 327.053 "
fill = "white" stroke = "black"/>
</g>
<g>
<polygon points = "177.108, 226.287 122.638, 207.560 166.817, 141.084 193.767, 124.088 212.125, 122.782 222.834, 142.440 227.151, 166.134 208.208, 210.153 "
fill = "white" stroke = "black"/>
</g>
<g>
<polygon points = "737.054, 115.537 747.645, 116.618 770.791, 151.444 743.007, 193.541 735.077, 200.670 665.375, 174.149 670.265, 143.310 673.570, 138.749 "
fill = "white" stroke = "black"/>
</g>
<g>
<polygon points = "61.745, 902.684 76.934, 880.717 84.935, 878.281 117.215, 877.328 163.136, 905.182 157.344, 932.794 89.389, 1000.000 83.123, 1000.000 63.330, 977.002 "
fill = "white" stroke = "black"/>
</g>
<g>
<polygon points = "765.907, 422.189 749.240, 421.958 716.352, 378.548 717.339, 354.381 734.435, 327.053 757.213, 320.450 758.528, 320.576 816.132, 348.056 816.121, 388.181 "
fill = "white" stroke = "black"/>
</g>
<g>
<polygon points = "219.280, 776.355 241.322, 821.740 200.314, 842.237 187.364, 824.556 186.393, 758.481 "
fill = "white" stroke = "black"/>
</g>
<g>
<polygon points = "114.253, 639.177 39.168, 607.213 50.702, 571.865 58.969, 569.035 110.086, 614.408 "
fill = "white" stroke = "black"/>
</g>
<g>
<polygon points = "976.075, 81.728 932.607, 116.591 877.646, 34.162 873.860, 0.000 960.027, 0.000 "
fill = "white" stroke = "black"/>
</g>
<g>
<polygon points = "419.346, 757.547 394.290, 757.490 330.415, 673.487 385.242, 671.618 "
fill = "white" stroke = "black"/>
</g>
<g>
<polygon points = "718.644, 777.891 618.989, 719.183 703.859, 699.480 733.533, 771.670 "
fill = "white" stroke = "black"/>
</g>
<g>
<polygon points = "770.791, 151.444 829.878, 170.189 850.064, 187.116 844.535, 221.168 842.083, 224.488 779.692, 234.767 743.007, 193.541 "
fill = "white" stroke = "black"/>
</g>
<g>
<polygon points = "419.346, 757.547 385.242, 671.618 430.907, 655.767 457.513, 669.221 480.420, 727.508 480.139, 745.035 461.152, 778.175 "
fill = "white" stroke = "black"/>
</g>
<g>
<polygon points = "167.088, 942.248 235.037, 983.543 243.723, 1000.000 184.986, 1000.000 "
fill = "white" stroke = "black"/>
</g>
<g>
<polygon points = "219.056, 47.353 168.291, 53.245 159.923, 36.822 154.582, 0.000 219.644, 0.000 "
fill = "white" stroke = "black"/>
</g>
<g>
<polygon points = "275.784, 205.668 268.460, 209.611 208.208, 210.153 227.151, 166.134 263.967, 170.201 "
fill = "white" stroke = "black"/>
</g>
<g>
<polygon points = "114.253, 639.177 110.086, 614.408 147.538, 536.554 150.931, 536.525 198.002, 614.266 196.382, 621.369 125.050, 660.698 "
fill = "white" stroke = "black"/>
</g>
<g>
<polygon points = "630.927, 810.005 623.318, 846.131 587.119, 850.821 561.502, 810.817 592.926, 759.853 "
fill = "white" stroke = "black"/>
</g>
<g>
<polygon points = "788.005, 767.454 868.318, 781.440 900.215, 823.958 906.962, 855.988 906.893, 857.481 905.309, 859.734 785.833, 857.750 "
fill = "white" stroke = "black"/>
</g>
<g>
<polygon points = "976.445, 776.388 988.269, 688.711 1000.000, 689.048 1000.000, 781.374 "
fill = "white" stroke = "black"/>
</g>
<g>
<polygon points = "164.594, 904.118 197.267, 854.850 255.027, 888.428 242.499, 925.820 "
fill = "white" stroke = "black"/>
</g>
<g>
<polygon points = "172.467, 360.346 197.683, 322.992 213.717, 309.970 246.106, 356.482 254.168, 409.958 240.166, 437.400 228.116, 440.096 169.190, 378.715 "
fill = "white" stroke = "black"/>
</g>
<g>
<polygon points = "735.077, 200.670 730.777, 212.137 709.125, 226.072 665.478, 226.317 657.478, 213.103 661.110, 180.568 665.375, 174.149 "
fill = "white" stroke = "black"/>
</g>
<g>
<polygon points = "709.125, 226.072 709.818, 270.142 706.842, 274.463 679.642, 270.570 663.800, 257.064 665.478, 226.317 "
fill = "white" stroke = "black"/>
</g>
<g>
<polygon points = "662.556, 403.793 636.168, 343.489 637.774, 343.428 687.005, 346.031 717.339, 354.381 716.352, 378.548 "
fill = "white" stroke = "black"/>
</g>
<g>
<polygon points = "65.056, 368.099 105.761, 394.058 107.662, 396.578 103.804, 406.466 88.324, 423.756 30.007, 434.957 0.000, 433.652 0.000, 377.077 "
fill = "white" stroke = "black"/>
</g>
<g>
<polygon points = "202.574, 630.529 265.859, 669.689 204.445, 700.194 "
fill = "white" stroke = "black"/>
</g>
<g>
<polygon points = "653.529, 880.425 684.750, 850.277 740.724, 914.374 708.653, 936.898 706.232, 937.929 653.478, 880.972 "
fill = "white" stroke = "black"/>
</g>
<g>
<polygon points = "720.833, 469.778 722.426, 456.704 749.240, 421.958 765.907, 422.189 804.488, 485.871 804.575, 494.825 743.526, 499.776 "
fill = "white" stroke = "black"/>
</g>
<g>
<polygon points = "477.527, 406.160 477.745, 404.285 533.466, 376.361 586.910, 383.547 604.535, 431.137 566.392, 448.080 497.991, 435.276 "
fill = "white" stroke = "black"/>
</g>
<g>
<polygon points = "353.738, 338.008 306.630, 331.352 304.246, 329.149 283.416, 292.448 322.514, 253.903 373.270, 276.924 372.569, 310.573 369.671, 326.266 "
fill = "white" stroke = "black"/>
</g>
<g>
<polygon points = "164.594, 904.118 163.136, 905.182 117.215, 877.328 117.723, 826.793 150.061, 812.340 187.364, 824.556 200.314, 842.237 197.267, 854.850 "
fill = "white" stroke = "black"/>
</g>
<g>
<polygon points = "511.773, 178.301 466.838, 163.377 445.178, 135.337 441.166, 119.633 518.893, 122.109 534.692, 157.972 533.062, 169.306 "
fill = "white" stroke = "black"/>
</g>
<g>
<polygon points = "765.907, 422.189 816.121, 388.181 861.853, 422.764 804.488, 485.871 "
fill = "white" stroke = "black"/>
</g>
<g>
<polygon points = "798.175, 684.544 785.690, 737.061 717.796, 682.586 785.095, 666.543 "
fill = "white" stroke = "black"/>
</g>
<g>
<polygon points = "191.949, 496.663 150.931, 536.525 147.538, 536.554 110.600, 526.265 94.007, 498.560 94.014, 498.073 132.979, 452.278 162.423, 457.532 199.884, 473.512 "
fill = "white" stroke = "black"/>
</g>
<g>
<polygon points = "264.811, 451.902 240.166, 437.400 254.168, 409.958 289.957, 386.127 327.885, 393.972 355.019, 436.312 334.901, 447.138 "
fill = "white" stroke = "black"/>
</g>
<g>
<polygon points = "559.275, 611.062 492.438, 586.196 459.270, 553.668 483.748, 538.409 545.480, 559.839 558.696, 566.692 "
fill = "white" stroke = "black"/>
</g>
<g>
<polygon points = "202.574, 630.529 196.382, 621.369 198.002, 614.266 206.751, 609.267 248.626, 603.606 295.699, 614.522 326.894, 654.148 329.545, 673.382 313.405, 688.771 265.859, 669.689 "
fill = "white" stroke = "black"/>
</g>
<g>
<polygon points = "425.718, 517.124 430.279, 521.125 454.982, 553.836 430.827, 587.748 367.569, 580.044 373.052, 536.163 "
fill = "white" stroke = "black"/>
</g>
<g>
<polygon points = "454.982, 553.836 459.270, 553.668 492.438, 586.196 482.253, 654.695 457.513, 669.221 430.907, 655.767 430.827, 587.748 "
fill = "white" stroke = "black"/>
</g>
<g>
<polygon points = "312.090, 873.987 315.581, 874.263 335.234, 892.074 326.930, 967.787 258.577, 930.413 "
fill = "white" stroke = "black"/>
</g>
<g>
<polygon points = "394.290, 757.490 374.235, 768.013 307.322, 760.779 300.872, 753.737 309.643, 698.575 313.405, 688.771 329.545, 673.382 330.415, 673.487 "
fill = "white" stroke = "black"/>
</g>
<g>
<polygon points = "676.962, 321.161 687.005, 346.031 637.774, 343.428 669.532, 320.998 "
fill = "white" stroke = "black"/>
</g>
<g>
<polygon points = "524.957, 248.871 542.606, 251.494 550.890, 301.302 547.466, 303.495 476.432, 306.884 476.823, 281.471 "
fill = "white" stroke = "black"/>
</g>
<g>
<polygon points = "760.472, 91.347 747.645, 116.618 737.054, 115.537 704.309, 77.907 685.410, 0.000 774.020, 0.000 "
fill = "white" stroke = "black"/>
</g>
<g>
<polygon points = "420.230, 42.662 507.200, 56.511 505.904, 61.472 431.422, 106.715 382.357, 82.536 375.017, 76.507 368.430, 69.810 366.167, 54.035 "
fill = "white" stroke = "black"/>
</g>
<g>
<polygon points = "330.351, 561.478 301.204, 559.852 285.706, 528.337 290.925, 515.432 332.394, 510.976 343.277, 517.042 "
fill = "white" stroke = "black"/>
</g>
<g>
<polygon points = "533.466, 376.361 477.745, 404.285 457.840, 363.089 470.457, 313.620 476.432, 306.884 547.466, 303.495 "
fill = "white" stroke = "black"/>
</g>
<g>
<polygon points = "375.292, 397.760 428.559, 357.440 457.840, 363.089 477.745, 404.285 477.527, 406.160 420.045, 443.292 369.450, 432.536 "
fill = "white" stroke = "black"/>
</g>
<g>
<polygon points = "906.893, 857.481 906.962, 855.988 987.710, 827.965 1000.000, 876.251 1000.000, 904.540 "
fill = "white" stroke = "black"/>
</g>
<g>
<polygon points = "665.193, 600.111 713.532, 619.759 710.683, 631.823 646.417, 688.075 612.287, 704.307 611.826, 703.353 "
fill = "white" stroke = "black"/>
</g>
<g>
<polygon points = "497.991, 435.276 566.392, 448.080 561.897, 492.805 500.717, 461.499 498.566, 452.508 "
fill = "white" stroke = "black"/>
</g>
<g>
<polygon points = "854.555, 1000.000 812.288, 1000.000 827.000, 974.966 841.875, 976.275 "
fill = "white" stroke = "black"/>
</g>
<g>
<polygon points = "254.168, 409.958 246.106, 356.482 304.246, 329.149 306.630, 331.352 289.957, 386.127 "
fill = "white" stroke = "black"/>
</g>
<g>
<polygon points = "507.200, 56.511 507.349, 56.227 564.933, 66.931 571.458, 89.134 520.635, 104.969 505.904, 61.472 "
fill = "white" stroke = "black"/>
</g>
<g>
<polygon points = "360.709, 41.516 239.068, 64.146 234.617, 58.562 271.905, 0.000 356.353, 0.000 "
fill = "white" stroke = "black"/>
</g>
<g>
<polygon points = "263.967, 170.201 227.151, 166.134 222.834, 142.440 268.829, 151.681 "
fill = "white" stroke = "black"/>
</g>
<g>
<polygon points = "718.601, 541.040 646.745, 556.382 636.892, 517.262 639.578, 512.585 668.814, 507.250 722.192, 538.447 "
fill = "white" stroke = "black"/>
</g>
<g>
<polygon points = "816.535, 963.347 827.000, 974.966 812.288, 1000.000 789.174, 1000.000 "
fill = "white" stroke = "black"/>
</g>
<g>
<polygon points = "98.827, 211.499 122.638, 207.560 177.108, 226.287 220.268, 293.711 213.717, 309.970 197.683, 322.992 118.638, 290.842 "
fill = "white" stroke = "black"/>
</g>
<g>
<polygon points = "665.193, 600.111 659.182, 591.699 718.601, 541.040 722.192, 538.447 725.470, 538.797 756.124, 605.337 753.769, 609.271 713.532, 619.759 "
fill = "white" stroke = "black"/>
</g>
<g>
<polygon points = "550.064, 240.341 562.942, 207.595 593.168, 215.845 605.601, 225.337 609.743, 269.584 "
fill = "white" stroke = "black"/>
</g>
<g>
<polygon points = "933.074, 311.301 931.281, 307.004 1000.000, 259.759 1000.000, 354.010 "
fill = "white" stroke = "black"/>
</g>
<g>
<polygon points = "322.514, 253.903 283.416, 292.448 253.481, 287.064 268.460, 209.611 275.784, 205.668 313.920, 208.741 "
fill = "white" stroke = "black"/>
</g>
<g>
<polygon points = "157.344, 932.794 167.088, 942.248 184.986, 1000.000 89.389, 1000.000 "
fill = "white" stroke = "black"/>
</g>
<g>
<polygon points = "565.741, 931.345 499.312, 970.987 462.788, 890.689 471.361, 884.696 516.047, 887.373 563.568, 926.059 "
fill = "white" stroke = "black"/>
</g>
<g>
<polygon points = "168.062, 53.770 193.767, 124.088 166.817, 141.084 134.115, 82.003 "
fill = "white" stroke = "black"/>
</g>
<g>
<polygon points = "795.665, 271.711 759.155, 253.516 779.692, 234.767 842.083, 224.488 830.654, 256.259 "
fill = "white" stroke = "black"/>
</g>
<g>
<polygon points = "422.999, 951.949 490.003, 982.572 489.233, 1000.000 368.158, 1000.000 "
fill = "white" stroke = "black"/>
</g>
<g>
<polygon points = "566.392, 448.080 604.535, 431.137 626.153, 441.231 639.578, 512.585 636.892, 517.262 582.019, 526.499 568.453, 513.759 562.381, 498.475 561.897, 492.805 "
fill = "white" stroke = "black"/>
</g>
<g>
<polygon points = "88.324, 423.756 92.727, 493.585 30.007, 434.957 "
fill = "white" stroke = "black"/>
</g>
<g>
<polygon points = "446.482, 792.352 378.103, 790.083 374.235, 768.013 394.290, 757.490 419.346, 757.547 461.152, 778.175 461.184, 779.615 "
fill = "white" stroke = "black"/>
</g>
<g>
<polygon points = "375.292, 397.760 353.690, 339.326 353.738, 338.008 369.671, 326.266 428.559, 357.440 "
fill = "white" stroke = "black"/>
</g>
<g>
<polygon points = "671.273, 301.815 611.772, 320.635 605.448, 309.878 614.432, 284.756 663.800, 257.064 679.642, 270.570 672.333, 301.322 "
fill = "white" stroke = "black"/>
</g>
<g>
<polygon points = "480.420, 727.508 575.720, 672.485 611.826, 703.353 612.287, 704.307 615.010, 717.739 593.050, 755.886 480.139, 745.035 "
fill = "white" stroke = "black"/>
</g>
<g>
<polygon points = "828.777, 574.901 888.702, 632.844 892.068, 644.372 798.175, 684.544 785.095, 666.543 753.769, 609.271 756.124, 605.337 762.342, 601.013 "
fill = "white" stroke = "black"/>
</g>
<g>
<polygon points = "612.287, 704.307 646.417, 688.075 708.452, 673.495 710.730, 679.797 703.859, 699.480 618.989, 719.183 615.010, 717.739 "
fill = "white" stroke = "black"/>
</g>
<g>
<polygon points = "30.626, 898.290 0.000, 924.792 0.000, 883.907 16.427, 878.377 "
fill = "white" stroke = "black"/>
</g>
<g>
<polygon points = "550.064, 240.341 542.606, 251.494 524.957, 248.871 509.937, 237.024 500.497, 197.880 511.773, 178.301 533.062, 169.306 552.585, 187.857 562.942, 207.595 "
fill = "white" stroke = "black"/>
</g>
<g>
<polygon points = "167.088, 942.248 157.344, 932.794 163.136, 905.182 164.594, 904.118 242.499, 925.820 245.191, 929.271 235.037, 983.543 "
fill = "white" stroke = "black"/>
</g>
<g>
<polygon points = "51.613, 777.370 53.499, 777.705 77.988, 800.529 84.935, 878.281 76.934, 880.717 35.769, 842.516 "
fill = "white" stroke = "black"/>
</g>
<g>
<polygon points = "733.533, 771.670 703.859, 699.480 710.730, 679.797 717.796, 682.586 785.690, 737.061 784.051, 764.184 "
fill = "white" stroke = "black"/>
</g>
<g>
<polygon points = "94.007, 498.560 110.600, 526.265 58.969, 569.035 50.702, 571.865 0.000, 533.863 0.000, 493.381 "
fill = "white" stroke = "black"/>
</g>
<g>
<polygon points = "477.527, 406.160 497.991, 435.276 498.566, 452.508 430.279, 521.125 425.718, 517.124 420.512, 503.461 420.045, 443.292 "
fill = "white" stroke = "black"/>
</g>
<g>
<polygon points = "462.788, 890.689 452.611, 892.701 421.974, 818.821 446.482, 792.352 461.184, 779.615 475.880, 798.086 471.361, 884.696 "
fill = "white" stroke = "black"/>
</g>
<g>
<polygon points = "323.529, 197.769 313.920, 208.741 275.784, 205.668 263.967, 170.201 268.829, 151.681 288.732, 125.452 318.820, 122.125 "
fill = "white" stroke = "black"/>
</g>
<g>
<polygon points = "722.426, 456.704 648.436, 427.640 662.556, 403.793 716.352, 378.548 749.240, 421.958 "
fill = "white" stroke = "black"/>
</g>
<g>
<polygon points = "646.417, 688.075 710.683, 631.823 708.452, 673.495 "
fill = "white" stroke = "black"/>
</g>
<g>
<polygon points = "86.277, 40.803 72.321, 65.761 0.000, 41.062 0.000, 0.000 94.625, 0.000 "
fill = "white" stroke = "black"/>
</g>
<g>
<polygon points = "490.003, 982.572 499.312, 970.987 565.741, 931.345 582.026, 939.891 605.891, 976.556 606.991, 1000.000 489.233, 1000.000 "
fill = "white" stroke = "black"/>
</g>
<g>
<polygon points = "860.423, 917.196 907.679, 997.472 908.297, 1000.000 854.555, 1000.000 841.875, 976.275 853.680, 919.189 "
fill = "white" stroke = "black"/>
</g>
<g>
<polygon points = "425.718, 517.124 373.052, 536.163 347.713, 517.151 369.058, 493.173 420.512, 503.461 "
fill = "white" stroke = "black"/>
</g>
<g>
<polygon points = "605.448, 309.878 550.890, 301.302 542.606, 251.494 550.064, 240.341 609.743, 269.584 614.432, 284.756 "
fill = "white" stroke = "black"/>
</g>
<g>
<polygon points = "722.426, 456.704 720.833, 469.778 668.814, 507.250 639.578, 512.585 626.153, 441.231 648.436, 427.640 "
fill = "white" stroke = "black"/>
</g>
<g>
<polygon points = "35.769, 842.516 76.934, 880.717 61.745, 902.684 30.626, 898.290 16.427, 878.377 23.861, 849.088 "
fill = "white" stroke = "black"/>
</g>
<g>
<polygon points = "987.710, 827.965 906.962, 855.988 900.215, 823.958 969.613, 776.302 976.445, 776.388 1000.000, 781.374 1000.000, 818.833 "
fill = "white" stroke = "black"/>
</g>
<g>
<polygon points = "355.019, 436.312 327.885, 393.972 353.690, 339.326 375.292, 397.760 369.450, 432.536 358.309, 436.322 "
fill = "white" stroke = "black"/>
</g>
<g>
<polygon points = "623.318, 846.131 653.529, 880.425 653.478, 880.972 582.026, 939.891 565.741, 931.345 563.568, 926.059 571.896, 886.082 587.119, 850.821 "
fill = "white" stroke = "black"/>
</g>
<g>
<polygon points = "571.893, 56.277 564.933, 66.931 507.349, 56.227 511.822, 0.000 569.807, 0.000 "
fill = "white" stroke = "black"/>
</g>
<g>
<polygon points = "362.678, 196.218 323.529, 197.769 318.820, 122.125 368.430, 69.810 375.017, 76.507 "
fill = "white" stroke = "black"/>
</g>
<g>
<polygon points = "976.445, 776.388 969.613, 776.302 954.689, 747.899 939.973, 681.087 988.269, 688.711 "
fill = "white" stroke = "black"/>
</g>
<g>
<polygon points = "248.626, 603.606 206.751, 609.267 242.379, 550.133 250.672, 549.546 264.024, 572.969 "
fill = "white" stroke = "black"/>
</g>
<g>
<polygon points = "770.791, 151.444 747.645, 116.618 760.472, 91.347 843.162, 81.296 829.878, 170.189 "
fill = "white" stroke = "black"/>
</g>
<g>
<polygon points = "253.481, 287.064 220.268, 293.711 177.108, 226.287 208.208, 210.153 268.460, 209.611 "
fill = "white" stroke = "black"/>
</g>
<g>
<polygon points = "659.182, 591.699 652.829, 585.514 646.745, 556.382 718.601, 541.040 "
fill = "white" stroke = "black"/>
</g>
<g>
<polygon points = "246.106, 356.482 213.717, 309.970 220.268, 293.711 253.481, 287.064 283.416, 292.448 304.246, 329.149 "
fill = "white" stroke = "black"/>
</g>
<g>
<polygon points = "77.988, 800.529 53.499, 777.705 134.980, 745.651 137.495, 779.716 102.719, 813.268 "
fill = "white" stroke = "black"/>
</g>
<g>
<polygon points = "88.324, 423.756 103.804, 406.466 132.979, 452.278 94.014, 498.073 92.727, 493.585 "
fill = "white" stroke = "black"/>
</g>
<g>
<polygon points = "51.613, 777.370 35.769, 842.516 23.861, 849.088 0.000, 845.828 0.000, 732.928 "
fill = "white" stroke = "black"/>
</g>
<g>
<polygon points = "636.892, 517.262 646.745, 556.382 652.829, 585.514 559.766, 612.075 559.275, 611.062 558.696, 566.692 582.019, 526.499 "
fill = "white" stroke = "black"/>
</g>
<g>
<polygon points = "91.606, 209.726 98.827, 211.499 118.638, 290.842 116.360, 316.301 111.245, 322.554 71.297, 333.834 67.668, 328.855 58.665, 291.516 "
fill = "white" stroke = "black"/>
</g>
<g>
<polygon points = "362.678, 196.218 375.017, 76.507 382.357, 82.536 400.012, 204.928 "
fill = "white" stroke = "black"/>
</g>
<g>
<polygon points = "159.923, 36.822 86.277, 40.803 94.625, 0.000 154.582, 0.000 "
fill = "white" stroke = "black"/>
</g>
<g>
<polygon points = "30.626, 898.290 61.745, 902.684 63.330, 977.002 0.000, 953.861 0.000, 924.792 "
fill = "white" stroke = "black"/>
</g>
<g>
<polygon points = "509.937, 237.024 466.367, 249.350 453.423, 231.672 500.497, 197.880 "
fill = "white" stroke = "black"/>
</g>
<g>
<polygon points = "954.689, 747.899 869.001, 780.242 920.484, 671.442 939.973, 681.087 "
fill = "white" stroke = "black"/>
</g>
<g>
<polygon points = "322.514, 253.903 313.920, 208.741 323.529, 197.769 362.678, 196.218 400.012, 204.928 401.551, 206.043 413.363, 222.974 396.295, 257.825 373.270, 276.924 "
fill = "white" stroke = "black"/>
</g>
<g>
<polygon points = "509.937, 237.024 524.957, 248.871 476.823, 281.471 466.367, 249.350 "
fill = "white" stroke = "black"/>
</g>
<g>
<polygon points = "676.962, 321.161 669.532, 320.998 671.273, 301.815 672.333, 301.322 678.495, 306.445 "
fill = "white" stroke = "black"/>
</g>
<g>
<polygon points = "708.653, 936.898 740.724, 914.374 769.957, 901.302 783.452, 912.075 777.305, 996.724 "
fill = "white" stroke = "black"/>
</g>
<g>
<polygon points = "241.322, 821.740 219.280, 776.355 262.610, 755.560 290.057, 759.273 242.492, 821.436 "
fill = "white" stroke = "black"/>
</g>
<g>
<polygon points = "605.448, 309.878 611.772, 320.635 614.782, 331.382 586.910, 383.547 533.466, 376.361 547.466, 303.495 550.890, 301.302 "
fill = "white" stroke = "black"/>
</g>
<g>
<polygon points = "652.829, 585.514 659.182, 591.699 665.193, 600.111 611.826, 703.353 575.720, 672.485 557.063, 636.788 559.766, 612.075 "
fill = "white" stroke = "black"/>
</g>
<g>
<polygon points = "219.280, 776.355 186.393, 758.481 179.372, 736.677 188.101, 732.107 262.610, 755.560 "
fill = "white" stroke = "black"/>
</g>
<g>
<polygon points = "623.318, 846.131 630.927, 810.005 700.528, 808.078 699.393, 824.828 684.750, 850.277 653.529, 880.425 "
fill = "white" stroke = "black"/>
</g>
<g>
<polygon points = "733.533, 771.670 784.051, 764.184 788.005, 767.454 785.833, 857.750 770.203, 895.793 699.393, 824.828 700.528, 808.078 718.644, 777.891 "
fill = "white" stroke = "black"/>
</g>
<g>
<polygon points = "27.168, 330.281 67.668, 328.855 71.297, 333.834 65.056, 368.099 0.000, 377.077 0.000, 362.899 "
fill = "white" stroke = "black"/>
</g>
<g>
<polygon points = "159.923, 36.822 168.291, 53.245 168.062, 53.770 134.115, 82.003 82.789, 87.049 72.321, 65.761 86.277, 40.803 "
fill = "white" stroke = "black"/>
</g>
</svg>
